G04*
G04 #@! TF.GenerationSoftware,Altium Limited,Altium Designer,18.0.7 (293)*
G04*
G04 Layer_Color=8388736*
%FSLAX25Y25*%
%MOIN*%
G70*
G01*
G75*
%ADD11C,0.06800*%
D11*
X357500Y219500D02*
D03*
Y229500D02*
D03*
X347500D02*
D03*
Y219500D02*
D03*
X367500D02*
D03*
Y229500D02*
D03*
X377500D02*
D03*
Y219500D02*
D03*
X357500Y242000D02*
D03*
Y252000D02*
D03*
X347500D02*
D03*
Y242000D02*
D03*
X367500D02*
D03*
Y252000D02*
D03*
X377500D02*
D03*
Y242000D02*
D03*
X296500Y219500D02*
D03*
Y229500D02*
D03*
X286500D02*
D03*
Y219500D02*
D03*
X306500D02*
D03*
Y229500D02*
D03*
X316500D02*
D03*
Y219500D02*
D03*
X189500Y219000D02*
D03*
Y229000D02*
D03*
X179500D02*
D03*
Y219000D02*
D03*
X199500D02*
D03*
Y229000D02*
D03*
X209500D02*
D03*
Y219000D02*
D03*
X366500Y278000D02*
D03*
Y288000D02*
D03*
Y308000D02*
D03*
Y298000D02*
D03*
Y338000D02*
D03*
Y348000D02*
D03*
Y328000D02*
D03*
Y318000D02*
D03*
Y398000D02*
D03*
Y408000D02*
D03*
Y418000D02*
D03*
Y378000D02*
D03*
Y388000D02*
D03*
Y368000D02*
D03*
Y358000D02*
D03*
X346500Y278000D02*
D03*
Y288000D02*
D03*
Y308000D02*
D03*
Y298000D02*
D03*
Y338000D02*
D03*
Y348000D02*
D03*
Y328000D02*
D03*
Y318000D02*
D03*
Y398000D02*
D03*
Y408000D02*
D03*
Y418000D02*
D03*
Y378000D02*
D03*
Y388000D02*
D03*
Y368000D02*
D03*
Y358000D02*
D03*
X326500Y278000D02*
D03*
Y288000D02*
D03*
Y308000D02*
D03*
Y298000D02*
D03*
Y338000D02*
D03*
Y348000D02*
D03*
Y328000D02*
D03*
Y318000D02*
D03*
Y398000D02*
D03*
Y408000D02*
D03*
Y418000D02*
D03*
Y378000D02*
D03*
Y388000D02*
D03*
Y368000D02*
D03*
Y358000D02*
D03*
X226500Y278000D02*
D03*
Y288000D02*
D03*
Y308000D02*
D03*
Y298000D02*
D03*
Y338000D02*
D03*
Y348000D02*
D03*
Y328000D02*
D03*
Y318000D02*
D03*
Y398000D02*
D03*
Y408000D02*
D03*
Y418000D02*
D03*
Y378000D02*
D03*
Y388000D02*
D03*
Y368000D02*
D03*
Y358000D02*
D03*
X206500Y278000D02*
D03*
Y288000D02*
D03*
Y308000D02*
D03*
Y298000D02*
D03*
Y338000D02*
D03*
Y348000D02*
D03*
Y328000D02*
D03*
Y318000D02*
D03*
Y398000D02*
D03*
Y408000D02*
D03*
Y418000D02*
D03*
Y378000D02*
D03*
Y388000D02*
D03*
Y368000D02*
D03*
Y358000D02*
D03*
X186500Y278000D02*
D03*
Y288000D02*
D03*
Y308000D02*
D03*
Y298000D02*
D03*
Y338000D02*
D03*
Y348000D02*
D03*
Y328000D02*
D03*
Y318000D02*
D03*
Y398000D02*
D03*
Y408000D02*
D03*
Y418000D02*
D03*
Y378000D02*
D03*
Y388000D02*
D03*
Y368000D02*
D03*
Y358000D02*
D03*
X274000Y219500D02*
D03*
Y229500D02*
D03*
X264000D02*
D03*
Y219500D02*
D03*
X244000D02*
D03*
Y229500D02*
D03*
X254000D02*
D03*
Y219500D02*
D03*
X209500Y242000D02*
D03*
Y252000D02*
D03*
X199500D02*
D03*
Y242000D02*
D03*
X179500D02*
D03*
Y252000D02*
D03*
X189500D02*
D03*
Y242000D02*
D03*
M02*
