G04*
G04 #@! TF.GenerationSoftware,Altium Limited,Altium Designer,18.0.7 (293)*
G04*
G04 Layer_Physical_Order=1*
G04 Layer_Color=255*
%FSLAX25Y25*%
%MOIN*%
G70*
G01*
G75*
%ADD10C,0.01000*%
%ADD12C,0.06000*%
G36*
X410000Y197500D02*
X146500D01*
X145957Y196957D01*
X145494Y197146D01*
X143003Y448645D01*
X143355Y449000D01*
X410000D01*
Y197500D01*
D02*
G37*
%LPC*%
G36*
X366500Y422035D02*
X365456Y421897D01*
X364483Y421494D01*
X363647Y420853D01*
X363006Y420017D01*
X362804Y419529D01*
X350196D01*
X349994Y420017D01*
X349353Y420853D01*
X348517Y421494D01*
X347544Y421897D01*
X346500Y422035D01*
X345456Y421897D01*
X344483Y421494D01*
X343647Y420853D01*
X343006Y420017D01*
X342804Y419529D01*
X330196D01*
X329994Y420017D01*
X329353Y420853D01*
X328517Y421494D01*
X327544Y421897D01*
X326500Y422035D01*
X325456Y421897D01*
X324483Y421494D01*
X323647Y420853D01*
X323006Y420017D01*
X322603Y419044D01*
X322465Y418000D01*
X322603Y416956D01*
X322805Y416468D01*
X309419Y403081D01*
X309087Y402585D01*
X308971Y402000D01*
Y266500D01*
X309087Y265915D01*
X309419Y265419D01*
X343805Y231032D01*
X343603Y230544D01*
X343465Y229500D01*
X343603Y228456D01*
X344006Y227483D01*
X344647Y226647D01*
X345483Y226006D01*
X345971Y225804D01*
Y223196D01*
X345483Y222994D01*
X344647Y222353D01*
X344006Y221517D01*
X343603Y220544D01*
X343465Y219500D01*
X343603Y218456D01*
X344006Y217483D01*
X344647Y216647D01*
X345483Y216006D01*
X346456Y215603D01*
X347500Y215465D01*
X348544Y215603D01*
X349517Y216006D01*
X350353Y216647D01*
X350994Y217483D01*
X351397Y218456D01*
X351535Y219500D01*
X351397Y220544D01*
X350994Y221517D01*
X350353Y222353D01*
X349517Y222994D01*
X349029Y223196D01*
Y225804D01*
X349517Y226006D01*
X350353Y226647D01*
X350994Y227483D01*
X351196Y227971D01*
X353804D01*
X354006Y227483D01*
X354647Y226647D01*
X355483Y226006D01*
X355971Y225804D01*
Y223196D01*
X355483Y222994D01*
X354647Y222353D01*
X354006Y221517D01*
X353603Y220544D01*
X353466Y219500D01*
X353603Y218456D01*
X354006Y217483D01*
X354647Y216647D01*
X355483Y216006D01*
X356456Y215603D01*
X357500Y215465D01*
X358544Y215603D01*
X359517Y216006D01*
X360353Y216647D01*
X360994Y217483D01*
X361397Y218456D01*
X361535Y219500D01*
X361397Y220544D01*
X360994Y221517D01*
X360353Y222353D01*
X359517Y222994D01*
X359029Y223196D01*
Y225804D01*
X359517Y226006D01*
X360353Y226647D01*
X360994Y227483D01*
X361196Y227971D01*
X363804D01*
X364006Y227483D01*
X364647Y226647D01*
X365483Y226006D01*
X365971Y225804D01*
Y223196D01*
X365483Y222994D01*
X364647Y222353D01*
X364006Y221517D01*
X363603Y220544D01*
X363465Y219500D01*
X363603Y218456D01*
X364006Y217483D01*
X364647Y216647D01*
X365483Y216006D01*
X366456Y215603D01*
X367500Y215465D01*
X368544Y215603D01*
X369517Y216006D01*
X370353Y216647D01*
X370994Y217483D01*
X371196Y217971D01*
X373804D01*
X374006Y217483D01*
X374647Y216647D01*
X375483Y216006D01*
X376456Y215603D01*
X377500Y215465D01*
X378544Y215603D01*
X379517Y216006D01*
X380353Y216647D01*
X380994Y217483D01*
X381397Y218456D01*
X381535Y219500D01*
X381397Y220544D01*
X380994Y221517D01*
X380353Y222353D01*
X379517Y222994D01*
X379029Y223196D01*
Y225804D01*
X379517Y226006D01*
X380353Y226647D01*
X380994Y227483D01*
X381397Y228456D01*
X381535Y229500D01*
X381397Y230544D01*
X380994Y231517D01*
X380353Y232353D01*
X379517Y232994D01*
X379029Y233196D01*
Y238304D01*
X379517Y238506D01*
X380353Y239147D01*
X380994Y239983D01*
X381397Y240956D01*
X381535Y242000D01*
X381397Y243044D01*
X380994Y244017D01*
X380353Y244853D01*
X379517Y245494D01*
X379029Y245696D01*
Y248304D01*
X379517Y248506D01*
X380353Y249147D01*
X380994Y249983D01*
X381397Y250956D01*
X381535Y252000D01*
X381397Y253044D01*
X380994Y254017D01*
X380353Y254853D01*
X379517Y255494D01*
X378544Y255897D01*
X377500Y256034D01*
X376456Y255897D01*
X375483Y255494D01*
X374647Y254853D01*
X374006Y254017D01*
X373804Y253529D01*
X371196D01*
X370994Y254017D01*
X370353Y254853D01*
X369517Y255494D01*
X368544Y255897D01*
X367500Y256034D01*
X366456Y255897D01*
X365483Y255494D01*
X364647Y254853D01*
X364006Y254017D01*
X363603Y253044D01*
X363465Y252000D01*
X363603Y250956D01*
X364006Y249983D01*
X364647Y249147D01*
X365483Y248506D01*
X365971Y248304D01*
Y245696D01*
X365483Y245494D01*
X364647Y244853D01*
X364006Y244017D01*
X363603Y243044D01*
X363465Y242000D01*
X363603Y240956D01*
X364006Y239983D01*
X364647Y239147D01*
X365483Y238506D01*
X366456Y238103D01*
X367500Y237965D01*
X368544Y238103D01*
X369517Y238506D01*
X370353Y239147D01*
X370994Y239983D01*
X371397Y240956D01*
X371534Y242000D01*
X371397Y243044D01*
X370994Y244017D01*
X370353Y244853D01*
X369517Y245494D01*
X369029Y245696D01*
Y248304D01*
X369517Y248506D01*
X370353Y249147D01*
X370994Y249983D01*
X371196Y250471D01*
X373804D01*
X374006Y249983D01*
X374647Y249147D01*
X375483Y248506D01*
X375971Y248304D01*
Y245696D01*
X375483Y245494D01*
X374647Y244853D01*
X374006Y244017D01*
X373603Y243044D01*
X373465Y242000D01*
X373603Y240956D01*
X374006Y239983D01*
X374647Y239147D01*
X375483Y238506D01*
X375971Y238304D01*
Y233196D01*
X375483Y232994D01*
X374647Y232353D01*
X374006Y231517D01*
X373603Y230544D01*
X373465Y229500D01*
X373603Y228456D01*
X374006Y227483D01*
X374647Y226647D01*
X375483Y226006D01*
X375971Y225804D01*
Y223196D01*
X375483Y222994D01*
X374647Y222353D01*
X374006Y221517D01*
X373804Y221029D01*
X371196D01*
X370994Y221517D01*
X370353Y222353D01*
X369517Y222994D01*
X369029Y223196D01*
Y225804D01*
X369517Y226006D01*
X370353Y226647D01*
X370994Y227483D01*
X371397Y228456D01*
X371534Y229500D01*
X371397Y230544D01*
X370994Y231517D01*
X370353Y232353D01*
X369517Y232994D01*
X368544Y233397D01*
X367500Y233535D01*
X366456Y233397D01*
X365483Y232994D01*
X364647Y232353D01*
X364006Y231517D01*
X363804Y231029D01*
X361196D01*
X360994Y231517D01*
X360353Y232353D01*
X359517Y232994D01*
X359029Y233196D01*
Y238304D01*
X359517Y238506D01*
X360353Y239147D01*
X360994Y239983D01*
X361397Y240956D01*
X361535Y242000D01*
X361397Y243044D01*
X360994Y244017D01*
X360353Y244853D01*
X359517Y245494D01*
X359029Y245696D01*
Y248304D01*
X359517Y248506D01*
X360353Y249147D01*
X360994Y249983D01*
X361397Y250956D01*
X361535Y252000D01*
X361397Y253044D01*
X360994Y254017D01*
X360353Y254853D01*
X359517Y255494D01*
X358544Y255897D01*
X357500Y256034D01*
X356456Y255897D01*
X355483Y255494D01*
X354647Y254853D01*
X354006Y254017D01*
X353603Y253044D01*
X353466Y252000D01*
X353603Y250956D01*
X354006Y249983D01*
X354647Y249147D01*
X355483Y248506D01*
X355971Y248304D01*
Y245696D01*
X355483Y245494D01*
X354647Y244853D01*
X354006Y244017D01*
X353603Y243044D01*
X353466Y242000D01*
X353603Y240956D01*
X354006Y239983D01*
X354647Y239147D01*
X355483Y238506D01*
X355971Y238304D01*
Y233196D01*
X355483Y232994D01*
X354647Y232353D01*
X354006Y231517D01*
X353804Y231029D01*
X351196D01*
X350994Y231517D01*
X350353Y232353D01*
X349517Y232994D01*
X349029Y233196D01*
Y238304D01*
X349517Y238506D01*
X350353Y239147D01*
X350994Y239983D01*
X351397Y240956D01*
X351535Y242000D01*
X351397Y243044D01*
X350994Y244017D01*
X350353Y244853D01*
X349517Y245494D01*
X349029Y245696D01*
Y248304D01*
X349517Y248506D01*
X350353Y249147D01*
X350994Y249983D01*
X351397Y250956D01*
X351535Y252000D01*
X351397Y253044D01*
X350994Y254017D01*
X350353Y254853D01*
X349517Y255494D01*
X348544Y255897D01*
X347500Y256034D01*
X346456Y255897D01*
X345483Y255494D01*
X344647Y254853D01*
X344006Y254017D01*
X343603Y253044D01*
X343465Y252000D01*
X343603Y250956D01*
X344006Y249983D01*
X344647Y249147D01*
X345483Y248506D01*
X345971Y248304D01*
Y245696D01*
X345483Y245494D01*
X344647Y244853D01*
X344006Y244017D01*
X343603Y243044D01*
X343465Y242000D01*
X343603Y240956D01*
X344006Y239983D01*
X344647Y239147D01*
X345483Y238506D01*
X345971Y238304D01*
Y233899D01*
X345471Y233692D01*
X312029Y267133D01*
Y401367D01*
X324968Y414305D01*
X325456Y414103D01*
X326500Y413966D01*
X327544Y414103D01*
X328517Y414506D01*
X329353Y415147D01*
X329994Y415983D01*
X330196Y416471D01*
X342804D01*
X343006Y415983D01*
X343647Y415147D01*
X344483Y414506D01*
X345456Y414103D01*
X346500Y413966D01*
X347544Y414103D01*
X348517Y414506D01*
X349353Y415147D01*
X349994Y415983D01*
X350196Y416471D01*
X362804D01*
X363006Y415983D01*
X363647Y415147D01*
X364483Y414506D01*
X365456Y414103D01*
X366500Y413966D01*
X367544Y414103D01*
X368517Y414506D01*
X369353Y415147D01*
X369994Y415983D01*
X370397Y416956D01*
X370534Y418000D01*
X370397Y419044D01*
X369994Y420017D01*
X369353Y420853D01*
X368517Y421494D01*
X367544Y421897D01*
X366500Y422035D01*
D02*
G37*
G36*
X226500D02*
X225456Y421897D01*
X224483Y421494D01*
X223647Y420853D01*
X223006Y420017D01*
X222804Y419529D01*
X210196D01*
X209994Y420017D01*
X209353Y420853D01*
X208517Y421494D01*
X207544Y421897D01*
X206500Y422035D01*
X205456Y421897D01*
X204483Y421494D01*
X203647Y420853D01*
X203006Y420017D01*
X202804Y419529D01*
X190196D01*
X189994Y420017D01*
X189353Y420853D01*
X188517Y421494D01*
X187544Y421897D01*
X186500Y422035D01*
X185456Y421897D01*
X184483Y421494D01*
X183647Y420853D01*
X183006Y420017D01*
X182603Y419044D01*
X182466Y418000D01*
X182603Y416956D01*
X182805Y416468D01*
X169419Y403081D01*
X169087Y402585D01*
X168971Y402000D01*
Y261000D01*
X169087Y260415D01*
X169419Y259919D01*
X175805Y253532D01*
X175603Y253044D01*
X175466Y252000D01*
X175603Y250956D01*
X176006Y249983D01*
X176647Y249147D01*
X177483Y248506D01*
X177971Y248304D01*
Y245696D01*
X177483Y245494D01*
X176647Y244853D01*
X176006Y244017D01*
X175603Y243044D01*
X175466Y242000D01*
X175603Y240956D01*
X176006Y239983D01*
X176647Y239147D01*
X177483Y238506D01*
X177971Y238304D01*
Y232696D01*
X177483Y232494D01*
X176647Y231853D01*
X176006Y231017D01*
X175603Y230044D01*
X175466Y229000D01*
X175603Y227956D01*
X176006Y226983D01*
X176647Y226147D01*
X177483Y225506D01*
X177971Y225304D01*
Y222696D01*
X177483Y222494D01*
X176647Y221853D01*
X176006Y221017D01*
X175603Y220044D01*
X175466Y219000D01*
X175603Y217956D01*
X176006Y216983D01*
X176647Y216147D01*
X177483Y215506D01*
X178456Y215103D01*
X179500Y214966D01*
X180544Y215103D01*
X181517Y215506D01*
X182353Y216147D01*
X182994Y216983D01*
X183397Y217956D01*
X183535Y219000D01*
X183397Y220044D01*
X182994Y221017D01*
X182353Y221853D01*
X181517Y222494D01*
X181029Y222696D01*
Y225304D01*
X181517Y225506D01*
X182353Y226147D01*
X182994Y226983D01*
X183196Y227471D01*
X185804D01*
X186006Y226983D01*
X186647Y226147D01*
X187483Y225506D01*
X187971Y225304D01*
Y222696D01*
X187483Y222494D01*
X186647Y221853D01*
X186006Y221017D01*
X185603Y220044D01*
X185466Y219000D01*
X185603Y217956D01*
X186006Y216983D01*
X186647Y216147D01*
X187483Y215506D01*
X188456Y215103D01*
X189500Y214966D01*
X190544Y215103D01*
X191517Y215506D01*
X192353Y216147D01*
X192994Y216983D01*
X193397Y217956D01*
X193535Y219000D01*
X193397Y220044D01*
X192994Y221017D01*
X192353Y221853D01*
X191517Y222494D01*
X191029Y222696D01*
Y225304D01*
X191517Y225506D01*
X192353Y226147D01*
X192994Y226983D01*
X193196Y227471D01*
X195804D01*
X196006Y226983D01*
X196647Y226147D01*
X197483Y225506D01*
X197971Y225304D01*
Y222696D01*
X197483Y222494D01*
X196647Y221853D01*
X196006Y221017D01*
X195603Y220044D01*
X195466Y219000D01*
X195603Y217956D01*
X196006Y216983D01*
X196647Y216147D01*
X197483Y215506D01*
X198456Y215103D01*
X199500Y214966D01*
X200544Y215103D01*
X201517Y215506D01*
X202353Y216147D01*
X202994Y216983D01*
X203196Y217471D01*
X205804D01*
X206006Y216983D01*
X206647Y216147D01*
X207483Y215506D01*
X208456Y215103D01*
X209500Y214966D01*
X210544Y215103D01*
X211517Y215506D01*
X212353Y216147D01*
X212994Y216983D01*
X213397Y217956D01*
X213534Y219000D01*
X213397Y220044D01*
X212994Y221017D01*
X212353Y221853D01*
X211517Y222494D01*
X211029Y222696D01*
Y225304D01*
X211517Y225506D01*
X212353Y226147D01*
X212994Y226983D01*
X213397Y227956D01*
X213534Y229000D01*
X213397Y230044D01*
X212994Y231017D01*
X212353Y231853D01*
X211517Y232494D01*
X211029Y232696D01*
Y238304D01*
X211517Y238506D01*
X212353Y239147D01*
X212994Y239983D01*
X213397Y240956D01*
X213534Y242000D01*
X213397Y243044D01*
X212994Y244017D01*
X212353Y244853D01*
X211517Y245494D01*
X211029Y245696D01*
Y248304D01*
X211517Y248506D01*
X212353Y249147D01*
X212994Y249983D01*
X213397Y250956D01*
X213534Y252000D01*
X213397Y253044D01*
X212994Y254017D01*
X212353Y254853D01*
X211517Y255494D01*
X210544Y255897D01*
X209500Y256034D01*
X208456Y255897D01*
X207483Y255494D01*
X206647Y254853D01*
X206006Y254017D01*
X205804Y253529D01*
X203196D01*
X202994Y254017D01*
X202353Y254853D01*
X201517Y255494D01*
X200544Y255897D01*
X199500Y256034D01*
X198456Y255897D01*
X197483Y255494D01*
X196647Y254853D01*
X196006Y254017D01*
X195603Y253044D01*
X195466Y252000D01*
X195603Y250956D01*
X196006Y249983D01*
X196647Y249147D01*
X197483Y248506D01*
X197971Y248304D01*
Y245696D01*
X197483Y245494D01*
X196647Y244853D01*
X196006Y244017D01*
X195603Y243044D01*
X195466Y242000D01*
X195603Y240956D01*
X196006Y239983D01*
X196647Y239147D01*
X197483Y238506D01*
X198456Y238103D01*
X199500Y237965D01*
X200544Y238103D01*
X201517Y238506D01*
X202353Y239147D01*
X202994Y239983D01*
X203397Y240956D01*
X203535Y242000D01*
X203397Y243044D01*
X202994Y244017D01*
X202353Y244853D01*
X201517Y245494D01*
X201029Y245696D01*
Y248304D01*
X201517Y248506D01*
X202353Y249147D01*
X202994Y249983D01*
X203196Y250471D01*
X205804D01*
X206006Y249983D01*
X206647Y249147D01*
X207483Y248506D01*
X207971Y248304D01*
Y245696D01*
X207483Y245494D01*
X206647Y244853D01*
X206006Y244017D01*
X205603Y243044D01*
X205466Y242000D01*
X205603Y240956D01*
X206006Y239983D01*
X206647Y239147D01*
X207483Y238506D01*
X207971Y238304D01*
Y232696D01*
X207483Y232494D01*
X206647Y231853D01*
X206006Y231017D01*
X205603Y230044D01*
X205466Y229000D01*
X205603Y227956D01*
X206006Y226983D01*
X206647Y226147D01*
X207483Y225506D01*
X207971Y225304D01*
Y222696D01*
X207483Y222494D01*
X206647Y221853D01*
X206006Y221017D01*
X205804Y220529D01*
X203196D01*
X202994Y221017D01*
X202353Y221853D01*
X201517Y222494D01*
X201029Y222696D01*
Y225304D01*
X201517Y225506D01*
X202353Y226147D01*
X202994Y226983D01*
X203397Y227956D01*
X203535Y229000D01*
X203397Y230044D01*
X202994Y231017D01*
X202353Y231853D01*
X201517Y232494D01*
X200544Y232897D01*
X199500Y233034D01*
X198456Y232897D01*
X197483Y232494D01*
X196647Y231853D01*
X196006Y231017D01*
X195804Y230529D01*
X193196D01*
X192994Y231017D01*
X192353Y231853D01*
X191517Y232494D01*
X191029Y232696D01*
Y238304D01*
X191517Y238506D01*
X192353Y239147D01*
X192994Y239983D01*
X193397Y240956D01*
X193535Y242000D01*
X193397Y243044D01*
X192994Y244017D01*
X192353Y244853D01*
X191517Y245494D01*
X191029Y245696D01*
Y248304D01*
X191517Y248506D01*
X192353Y249147D01*
X192994Y249983D01*
X193397Y250956D01*
X193535Y252000D01*
X193397Y253044D01*
X192994Y254017D01*
X192353Y254853D01*
X191517Y255494D01*
X190544Y255897D01*
X189500Y256034D01*
X188456Y255897D01*
X187483Y255494D01*
X186647Y254853D01*
X186006Y254017D01*
X185603Y253044D01*
X185466Y252000D01*
X185603Y250956D01*
X186006Y249983D01*
X186647Y249147D01*
X187483Y248506D01*
X187971Y248304D01*
Y245696D01*
X187483Y245494D01*
X186647Y244853D01*
X186006Y244017D01*
X185603Y243044D01*
X185466Y242000D01*
X185603Y240956D01*
X186006Y239983D01*
X186647Y239147D01*
X187483Y238506D01*
X187971Y238304D01*
Y232696D01*
X187483Y232494D01*
X186647Y231853D01*
X186006Y231017D01*
X185804Y230529D01*
X183196D01*
X182994Y231017D01*
X182353Y231853D01*
X181517Y232494D01*
X181029Y232696D01*
Y238304D01*
X181517Y238506D01*
X182353Y239147D01*
X182994Y239983D01*
X183397Y240956D01*
X183535Y242000D01*
X183397Y243044D01*
X182994Y244017D01*
X182353Y244853D01*
X181517Y245494D01*
X181029Y245696D01*
Y248304D01*
X181517Y248506D01*
X182353Y249147D01*
X182994Y249983D01*
X183397Y250956D01*
X183535Y252000D01*
X183397Y253044D01*
X182994Y254017D01*
X182353Y254853D01*
X181517Y255494D01*
X180544Y255897D01*
X179500Y256034D01*
X178456Y255897D01*
X177968Y255695D01*
X172029Y261633D01*
Y401367D01*
X184968Y414305D01*
X185456Y414103D01*
X186500Y413966D01*
X187544Y414103D01*
X188517Y414506D01*
X189353Y415147D01*
X189994Y415983D01*
X190196Y416471D01*
X202804D01*
X203006Y415983D01*
X203647Y415147D01*
X204483Y414506D01*
X205456Y414103D01*
X206500Y413966D01*
X207544Y414103D01*
X208517Y414506D01*
X209353Y415147D01*
X209994Y415983D01*
X210196Y416471D01*
X222804D01*
X223006Y415983D01*
X223647Y415147D01*
X224483Y414506D01*
X225456Y414103D01*
X226500Y413966D01*
X227544Y414103D01*
X228517Y414506D01*
X229353Y415147D01*
X229994Y415983D01*
X230397Y416956D01*
X230535Y418000D01*
X230397Y419044D01*
X229994Y420017D01*
X229353Y420853D01*
X228517Y421494D01*
X227544Y421897D01*
X226500Y422035D01*
D02*
G37*
G36*
X366500Y412035D02*
X365456Y411897D01*
X364483Y411494D01*
X363647Y410853D01*
X363006Y410017D01*
X362804Y409529D01*
X350196D01*
X349994Y410017D01*
X349353Y410853D01*
X348517Y411494D01*
X347544Y411897D01*
X346500Y412035D01*
X345456Y411897D01*
X344483Y411494D01*
X343647Y410853D01*
X343006Y410017D01*
X342804Y409529D01*
X330196D01*
X329994Y410017D01*
X329353Y410853D01*
X328517Y411494D01*
X327544Y411897D01*
X326500Y412035D01*
X325456Y411897D01*
X324483Y411494D01*
X323647Y410853D01*
X323006Y410017D01*
X322603Y409044D01*
X322465Y408000D01*
X322603Y406956D01*
X323006Y405983D01*
X323647Y405147D01*
X324483Y404506D01*
X325456Y404103D01*
X326500Y403966D01*
X327544Y404103D01*
X328517Y404506D01*
X329353Y405147D01*
X329994Y405983D01*
X330196Y406471D01*
X342804D01*
X343006Y405983D01*
X343647Y405147D01*
X344483Y404506D01*
X345456Y404103D01*
X346500Y403966D01*
X347544Y404103D01*
X348517Y404506D01*
X349353Y405147D01*
X349994Y405983D01*
X350196Y406471D01*
X362804D01*
X363006Y405983D01*
X363647Y405147D01*
X364483Y404506D01*
X365456Y404103D01*
X366500Y403966D01*
X367544Y404103D01*
X368517Y404506D01*
X369353Y405147D01*
X369994Y405983D01*
X370397Y406956D01*
X370534Y408000D01*
X370397Y409044D01*
X369994Y410017D01*
X369353Y410853D01*
X368517Y411494D01*
X367544Y411897D01*
X366500Y412035D01*
D02*
G37*
G36*
X227000Y411969D02*
Y408500D01*
X230469D01*
X230397Y409044D01*
X229994Y410017D01*
X229353Y410853D01*
X228517Y411494D01*
X227544Y411897D01*
X227000Y411969D01*
D02*
G37*
G36*
X226000D02*
X225456Y411897D01*
X224483Y411494D01*
X223647Y410853D01*
X223006Y410017D01*
X222603Y409044D01*
X222531Y408500D01*
X226000D01*
Y411969D01*
D02*
G37*
G36*
X207000D02*
Y408500D01*
X210469D01*
X210397Y409044D01*
X209994Y410017D01*
X209353Y410853D01*
X208517Y411494D01*
X207544Y411897D01*
X207000Y411969D01*
D02*
G37*
G36*
X206000D02*
X205456Y411897D01*
X204483Y411494D01*
X203647Y410853D01*
X203006Y410017D01*
X202603Y409044D01*
X202531Y408500D01*
X206000D01*
Y411969D01*
D02*
G37*
G36*
X187000D02*
Y408500D01*
X190469D01*
X190397Y409044D01*
X189994Y410017D01*
X189353Y410853D01*
X188517Y411494D01*
X187544Y411897D01*
X187000Y411969D01*
D02*
G37*
G36*
X186000D02*
X185456Y411897D01*
X184483Y411494D01*
X183647Y410853D01*
X183006Y410017D01*
X182603Y409044D01*
X182531Y408500D01*
X186000D01*
Y411969D01*
D02*
G37*
G36*
X230469Y407500D02*
X227000D01*
Y404031D01*
X227544Y404103D01*
X228517Y404506D01*
X229353Y405147D01*
X229994Y405983D01*
X230397Y406956D01*
X230469Y407500D01*
D02*
G37*
G36*
X226000D02*
X222531D01*
X222603Y406956D01*
X223006Y405983D01*
X223647Y405147D01*
X224483Y404506D01*
X225456Y404103D01*
X226000Y404031D01*
Y407500D01*
D02*
G37*
G36*
X210469D02*
X207000D01*
Y404031D01*
X207544Y404103D01*
X208517Y404506D01*
X209353Y405147D01*
X209994Y405983D01*
X210397Y406956D01*
X210469Y407500D01*
D02*
G37*
G36*
X206000D02*
X202531D01*
X202603Y406956D01*
X203006Y405983D01*
X203647Y405147D01*
X204483Y404506D01*
X205456Y404103D01*
X206000Y404031D01*
Y407500D01*
D02*
G37*
G36*
X190469D02*
X187000D01*
Y404031D01*
X187544Y404103D01*
X188517Y404506D01*
X189353Y405147D01*
X189994Y405983D01*
X190397Y406956D01*
X190469Y407500D01*
D02*
G37*
G36*
X186000D02*
X182531D01*
X182603Y406956D01*
X183006Y405983D01*
X183647Y405147D01*
X184483Y404506D01*
X185456Y404103D01*
X186000Y404031D01*
Y407500D01*
D02*
G37*
G36*
X366500Y402035D02*
X365456Y401897D01*
X364483Y401494D01*
X363647Y400853D01*
X363006Y400017D01*
X362804Y399529D01*
X350196D01*
X349994Y400017D01*
X349353Y400853D01*
X348517Y401494D01*
X347544Y401897D01*
X346500Y402035D01*
X345456Y401897D01*
X344483Y401494D01*
X343647Y400853D01*
X343006Y400017D01*
X342804Y399529D01*
X330196D01*
X329994Y400017D01*
X329353Y400853D01*
X328517Y401494D01*
X327544Y401897D01*
X326500Y402035D01*
X325456Y401897D01*
X324483Y401494D01*
X323647Y400853D01*
X323006Y400017D01*
X322603Y399044D01*
X322465Y398000D01*
X322603Y396956D01*
X323006Y395983D01*
X323647Y395147D01*
X324483Y394506D01*
X325456Y394103D01*
X326500Y393966D01*
X327544Y394103D01*
X328517Y394506D01*
X329353Y395147D01*
X329994Y395983D01*
X330196Y396471D01*
X342804D01*
X343006Y395983D01*
X343647Y395147D01*
X344483Y394506D01*
X345456Y394103D01*
X346500Y393966D01*
X347544Y394103D01*
X348517Y394506D01*
X349353Y395147D01*
X349994Y395983D01*
X350196Y396471D01*
X362804D01*
X363006Y395983D01*
X363647Y395147D01*
X364483Y394506D01*
X365456Y394103D01*
X366500Y393966D01*
X367544Y394103D01*
X368517Y394506D01*
X369353Y395147D01*
X369994Y395983D01*
X370397Y396956D01*
X370534Y398000D01*
X370397Y399044D01*
X369994Y400017D01*
X369353Y400853D01*
X368517Y401494D01*
X367544Y401897D01*
X366500Y402035D01*
D02*
G37*
G36*
X226500D02*
X225456Y401897D01*
X224483Y401494D01*
X223647Y400853D01*
X223006Y400017D01*
X222804Y399529D01*
X210196D01*
X209994Y400017D01*
X209353Y400853D01*
X208517Y401494D01*
X207544Y401897D01*
X206500Y402035D01*
X205456Y401897D01*
X204483Y401494D01*
X203647Y400853D01*
X203006Y400017D01*
X202804Y399529D01*
X190196D01*
X189994Y400017D01*
X189353Y400853D01*
X188517Y401494D01*
X187544Y401897D01*
X186500Y402035D01*
X185456Y401897D01*
X184483Y401494D01*
X183647Y400853D01*
X183006Y400017D01*
X182603Y399044D01*
X182466Y398000D01*
X182603Y396956D01*
X183006Y395983D01*
X183647Y395147D01*
X184483Y394506D01*
X185456Y394103D01*
X186500Y393966D01*
X187544Y394103D01*
X188517Y394506D01*
X189353Y395147D01*
X189994Y395983D01*
X190196Y396471D01*
X202804D01*
X203006Y395983D01*
X203647Y395147D01*
X204483Y394506D01*
X205456Y394103D01*
X206500Y393966D01*
X207544Y394103D01*
X208517Y394506D01*
X209353Y395147D01*
X209994Y395983D01*
X210196Y396471D01*
X222804D01*
X223006Y395983D01*
X223647Y395147D01*
X224483Y394506D01*
X225456Y394103D01*
X226500Y393966D01*
X227544Y394103D01*
X228517Y394506D01*
X229353Y395147D01*
X229994Y395983D01*
X230397Y396956D01*
X230535Y398000D01*
X230397Y399044D01*
X229994Y400017D01*
X229353Y400853D01*
X228517Y401494D01*
X227544Y401897D01*
X226500Y402035D01*
D02*
G37*
G36*
X366500Y392035D02*
X365456Y391897D01*
X364483Y391494D01*
X363647Y390853D01*
X363006Y390017D01*
X362804Y389529D01*
X350196D01*
X349994Y390017D01*
X349353Y390853D01*
X348517Y391494D01*
X347544Y391897D01*
X346500Y392035D01*
X345456Y391897D01*
X344483Y391494D01*
X343647Y390853D01*
X343006Y390017D01*
X342804Y389529D01*
X330196D01*
X329994Y390017D01*
X329353Y390853D01*
X328517Y391494D01*
X327544Y391897D01*
X326500Y392035D01*
X325456Y391897D01*
X324483Y391494D01*
X323647Y390853D01*
X323006Y390017D01*
X322603Y389044D01*
X322465Y388000D01*
X322603Y386956D01*
X323006Y385983D01*
X323647Y385147D01*
X324483Y384506D01*
X325456Y384103D01*
X326500Y383965D01*
X327544Y384103D01*
X328517Y384506D01*
X329353Y385147D01*
X329994Y385983D01*
X330196Y386471D01*
X342804D01*
X343006Y385983D01*
X343647Y385147D01*
X344483Y384506D01*
X345456Y384103D01*
X346500Y383965D01*
X347544Y384103D01*
X348517Y384506D01*
X349353Y385147D01*
X349994Y385983D01*
X350196Y386471D01*
X362804D01*
X363006Y385983D01*
X363647Y385147D01*
X364483Y384506D01*
X365456Y384103D01*
X366500Y383965D01*
X367544Y384103D01*
X368517Y384506D01*
X369353Y385147D01*
X369994Y385983D01*
X370397Y386956D01*
X370534Y388000D01*
X370397Y389044D01*
X369994Y390017D01*
X369353Y390853D01*
X368517Y391494D01*
X367544Y391897D01*
X366500Y392035D01*
D02*
G37*
G36*
X226500D02*
X225456Y391897D01*
X224483Y391494D01*
X223647Y390853D01*
X223006Y390017D01*
X222804Y389529D01*
X210196D01*
X209994Y390017D01*
X209353Y390853D01*
X208517Y391494D01*
X207544Y391897D01*
X206500Y392035D01*
X205456Y391897D01*
X204483Y391494D01*
X203647Y390853D01*
X203006Y390017D01*
X202804Y389529D01*
X190196D01*
X189994Y390017D01*
X189353Y390853D01*
X188517Y391494D01*
X187544Y391897D01*
X186500Y392035D01*
X185456Y391897D01*
X184483Y391494D01*
X183647Y390853D01*
X183006Y390017D01*
X182603Y389044D01*
X182466Y388000D01*
X182603Y386956D01*
X183006Y385983D01*
X183647Y385147D01*
X184483Y384506D01*
X185456Y384103D01*
X186500Y383965D01*
X187544Y384103D01*
X188517Y384506D01*
X189353Y385147D01*
X189994Y385983D01*
X190196Y386471D01*
X202804D01*
X203006Y385983D01*
X203647Y385147D01*
X204483Y384506D01*
X205456Y384103D01*
X206500Y383965D01*
X207544Y384103D01*
X208517Y384506D01*
X209353Y385147D01*
X209994Y385983D01*
X210196Y386471D01*
X222804D01*
X223006Y385983D01*
X223647Y385147D01*
X224483Y384506D01*
X225456Y384103D01*
X226500Y383965D01*
X227544Y384103D01*
X228517Y384506D01*
X229353Y385147D01*
X229994Y385983D01*
X230397Y386956D01*
X230535Y388000D01*
X230397Y389044D01*
X229994Y390017D01*
X229353Y390853D01*
X228517Y391494D01*
X227544Y391897D01*
X226500Y392035D01*
D02*
G37*
G36*
X366500Y382034D02*
X365456Y381897D01*
X364483Y381494D01*
X363647Y380853D01*
X363006Y380017D01*
X362804Y379529D01*
X350196D01*
X349994Y380017D01*
X349353Y380853D01*
X348517Y381494D01*
X347544Y381897D01*
X346500Y382034D01*
X345456Y381897D01*
X344483Y381494D01*
X343647Y380853D01*
X343006Y380017D01*
X342804Y379529D01*
X330196D01*
X329994Y380017D01*
X329353Y380853D01*
X328517Y381494D01*
X327544Y381897D01*
X326500Y382034D01*
X325456Y381897D01*
X324483Y381494D01*
X323647Y380853D01*
X323006Y380017D01*
X322603Y379044D01*
X322465Y378000D01*
X322603Y376956D01*
X323006Y375983D01*
X323647Y375147D01*
X324483Y374506D01*
X325456Y374103D01*
X326500Y373966D01*
X327544Y374103D01*
X328517Y374506D01*
X329353Y375147D01*
X329994Y375983D01*
X330196Y376471D01*
X342804D01*
X343006Y375983D01*
X343647Y375147D01*
X344483Y374506D01*
X345456Y374103D01*
X346500Y373966D01*
X347544Y374103D01*
X348517Y374506D01*
X349353Y375147D01*
X349994Y375983D01*
X350196Y376471D01*
X362804D01*
X363006Y375983D01*
X363647Y375147D01*
X364483Y374506D01*
X365456Y374103D01*
X366500Y373966D01*
X367544Y374103D01*
X368517Y374506D01*
X369353Y375147D01*
X369994Y375983D01*
X370397Y376956D01*
X370534Y378000D01*
X370397Y379044D01*
X369994Y380017D01*
X369353Y380853D01*
X368517Y381494D01*
X367544Y381897D01*
X366500Y382034D01*
D02*
G37*
G36*
X226500D02*
X225456Y381897D01*
X224483Y381494D01*
X223647Y380853D01*
X223006Y380017D01*
X222804Y379529D01*
X210196D01*
X209994Y380017D01*
X209353Y380853D01*
X208517Y381494D01*
X207544Y381897D01*
X206500Y382034D01*
X205456Y381897D01*
X204483Y381494D01*
X203647Y380853D01*
X203006Y380017D01*
X202804Y379529D01*
X190196D01*
X189994Y380017D01*
X189353Y380853D01*
X188517Y381494D01*
X187544Y381897D01*
X186500Y382034D01*
X185456Y381897D01*
X184483Y381494D01*
X183647Y380853D01*
X183006Y380017D01*
X182603Y379044D01*
X182466Y378000D01*
X182603Y376956D01*
X183006Y375983D01*
X183647Y375147D01*
X184483Y374506D01*
X185456Y374103D01*
X186500Y373966D01*
X187544Y374103D01*
X188517Y374506D01*
X189353Y375147D01*
X189994Y375983D01*
X190196Y376471D01*
X202804D01*
X203006Y375983D01*
X203647Y375147D01*
X204483Y374506D01*
X205456Y374103D01*
X206500Y373966D01*
X207544Y374103D01*
X208517Y374506D01*
X209353Y375147D01*
X209994Y375983D01*
X210196Y376471D01*
X222804D01*
X223006Y375983D01*
X223647Y375147D01*
X224483Y374506D01*
X225456Y374103D01*
X226500Y373966D01*
X227544Y374103D01*
X228517Y374506D01*
X229353Y375147D01*
X229994Y375983D01*
X230397Y376956D01*
X230535Y378000D01*
X230397Y379044D01*
X229994Y380017D01*
X229353Y380853D01*
X228517Y381494D01*
X227544Y381897D01*
X226500Y382034D01*
D02*
G37*
G36*
X366500Y372035D02*
X365456Y371897D01*
X364483Y371494D01*
X363647Y370853D01*
X363006Y370017D01*
X362804Y369529D01*
X350196D01*
X349994Y370017D01*
X349353Y370853D01*
X348517Y371494D01*
X347544Y371897D01*
X346500Y372035D01*
X345456Y371897D01*
X344483Y371494D01*
X343647Y370853D01*
X343006Y370017D01*
X342804Y369529D01*
X330196D01*
X329994Y370017D01*
X329353Y370853D01*
X328517Y371494D01*
X327544Y371897D01*
X326500Y372035D01*
X325456Y371897D01*
X324483Y371494D01*
X323647Y370853D01*
X323006Y370017D01*
X322603Y369044D01*
X322465Y368000D01*
X322603Y366956D01*
X323006Y365983D01*
X323647Y365147D01*
X324483Y364506D01*
X325456Y364103D01*
X326500Y363966D01*
X327544Y364103D01*
X328517Y364506D01*
X329353Y365147D01*
X329994Y365983D01*
X330196Y366471D01*
X342804D01*
X343006Y365983D01*
X343647Y365147D01*
X344483Y364506D01*
X345456Y364103D01*
X346500Y363966D01*
X347544Y364103D01*
X348517Y364506D01*
X349353Y365147D01*
X349994Y365983D01*
X350196Y366471D01*
X362804D01*
X363006Y365983D01*
X363647Y365147D01*
X364483Y364506D01*
X365456Y364103D01*
X366500Y363966D01*
X367544Y364103D01*
X368517Y364506D01*
X369353Y365147D01*
X369994Y365983D01*
X370397Y366956D01*
X370534Y368000D01*
X370397Y369044D01*
X369994Y370017D01*
X369353Y370853D01*
X368517Y371494D01*
X367544Y371897D01*
X366500Y372035D01*
D02*
G37*
G36*
X226500D02*
X225456Y371897D01*
X224483Y371494D01*
X223647Y370853D01*
X223006Y370017D01*
X222804Y369529D01*
X210196D01*
X209994Y370017D01*
X209353Y370853D01*
X208517Y371494D01*
X207544Y371897D01*
X206500Y372035D01*
X205456Y371897D01*
X204483Y371494D01*
X203647Y370853D01*
X203006Y370017D01*
X202804Y369529D01*
X190196D01*
X189994Y370017D01*
X189353Y370853D01*
X188517Y371494D01*
X187544Y371897D01*
X186500Y372035D01*
X185456Y371897D01*
X184483Y371494D01*
X183647Y370853D01*
X183006Y370017D01*
X182603Y369044D01*
X182466Y368000D01*
X182603Y366956D01*
X183006Y365983D01*
X183647Y365147D01*
X184483Y364506D01*
X185456Y364103D01*
X186500Y363966D01*
X187544Y364103D01*
X188517Y364506D01*
X189353Y365147D01*
X189994Y365983D01*
X190196Y366471D01*
X202804D01*
X203006Y365983D01*
X203647Y365147D01*
X204483Y364506D01*
X205456Y364103D01*
X206500Y363966D01*
X207544Y364103D01*
X208517Y364506D01*
X209353Y365147D01*
X209994Y365983D01*
X210196Y366471D01*
X222804D01*
X223006Y365983D01*
X223647Y365147D01*
X224483Y364506D01*
X225456Y364103D01*
X226500Y363966D01*
X227544Y364103D01*
X228517Y364506D01*
X229353Y365147D01*
X229994Y365983D01*
X230397Y366956D01*
X230535Y368000D01*
X230397Y369044D01*
X229994Y370017D01*
X229353Y370853D01*
X228517Y371494D01*
X227544Y371897D01*
X226500Y372035D01*
D02*
G37*
G36*
X366500Y362035D02*
X365456Y361897D01*
X364483Y361494D01*
X363647Y360853D01*
X363006Y360017D01*
X362804Y359529D01*
X350196D01*
X349994Y360017D01*
X349353Y360853D01*
X348517Y361494D01*
X347544Y361897D01*
X346500Y362035D01*
X345456Y361897D01*
X344483Y361494D01*
X343647Y360853D01*
X343006Y360017D01*
X342804Y359529D01*
X330196D01*
X329994Y360017D01*
X329353Y360853D01*
X328517Y361494D01*
X327544Y361897D01*
X326500Y362035D01*
X325456Y361897D01*
X324483Y361494D01*
X323647Y360853D01*
X323006Y360017D01*
X322603Y359044D01*
X322465Y358000D01*
X322603Y356956D01*
X323006Y355983D01*
X323647Y355147D01*
X324483Y354506D01*
X325456Y354103D01*
X326500Y353965D01*
X327544Y354103D01*
X328517Y354506D01*
X329353Y355147D01*
X329994Y355983D01*
X330196Y356471D01*
X342804D01*
X343006Y355983D01*
X343647Y355147D01*
X344483Y354506D01*
X345456Y354103D01*
X346500Y353965D01*
X347544Y354103D01*
X348517Y354506D01*
X349353Y355147D01*
X349994Y355983D01*
X350196Y356471D01*
X362804D01*
X363006Y355983D01*
X363647Y355147D01*
X364483Y354506D01*
X365456Y354103D01*
X366500Y353965D01*
X367544Y354103D01*
X368517Y354506D01*
X369353Y355147D01*
X369994Y355983D01*
X370397Y356956D01*
X370534Y358000D01*
X370397Y359044D01*
X369994Y360017D01*
X369353Y360853D01*
X368517Y361494D01*
X367544Y361897D01*
X366500Y362035D01*
D02*
G37*
G36*
X226500D02*
X225456Y361897D01*
X224483Y361494D01*
X223647Y360853D01*
X223006Y360017D01*
X222804Y359529D01*
X210196D01*
X209994Y360017D01*
X209353Y360853D01*
X208517Y361494D01*
X207544Y361897D01*
X206500Y362035D01*
X205456Y361897D01*
X204483Y361494D01*
X203647Y360853D01*
X203006Y360017D01*
X202804Y359529D01*
X190196D01*
X189994Y360017D01*
X189353Y360853D01*
X188517Y361494D01*
X187544Y361897D01*
X186500Y362035D01*
X185456Y361897D01*
X184483Y361494D01*
X183647Y360853D01*
X183006Y360017D01*
X182603Y359044D01*
X182466Y358000D01*
X182603Y356956D01*
X183006Y355983D01*
X183647Y355147D01*
X184483Y354506D01*
X185456Y354103D01*
X186500Y353965D01*
X187544Y354103D01*
X188517Y354506D01*
X189353Y355147D01*
X189994Y355983D01*
X190196Y356471D01*
X202804D01*
X203006Y355983D01*
X203647Y355147D01*
X204483Y354506D01*
X205456Y354103D01*
X206500Y353965D01*
X207544Y354103D01*
X208517Y354506D01*
X209353Y355147D01*
X209994Y355983D01*
X210196Y356471D01*
X222804D01*
X223006Y355983D01*
X223647Y355147D01*
X224483Y354506D01*
X225456Y354103D01*
X226500Y353965D01*
X227544Y354103D01*
X228517Y354506D01*
X229353Y355147D01*
X229994Y355983D01*
X230397Y356956D01*
X230535Y358000D01*
X230397Y359044D01*
X229994Y360017D01*
X229353Y360853D01*
X228517Y361494D01*
X227544Y361897D01*
X226500Y362035D01*
D02*
G37*
G36*
X366500Y352034D02*
X365456Y351897D01*
X364483Y351494D01*
X363647Y350853D01*
X363006Y350017D01*
X362804Y349529D01*
X350196D01*
X349994Y350017D01*
X349353Y350853D01*
X348517Y351494D01*
X347544Y351897D01*
X346500Y352034D01*
X345456Y351897D01*
X344483Y351494D01*
X343647Y350853D01*
X343006Y350017D01*
X342804Y349529D01*
X330196D01*
X329994Y350017D01*
X329353Y350853D01*
X328517Y351494D01*
X327544Y351897D01*
X326500Y352034D01*
X325456Y351897D01*
X324483Y351494D01*
X323647Y350853D01*
X323006Y350017D01*
X322603Y349044D01*
X322465Y348000D01*
X322603Y346956D01*
X323006Y345983D01*
X323647Y345147D01*
X324483Y344506D01*
X325456Y344103D01*
X326500Y343966D01*
X327544Y344103D01*
X328517Y344506D01*
X329353Y345147D01*
X329994Y345983D01*
X330196Y346471D01*
X342804D01*
X343006Y345983D01*
X343647Y345147D01*
X344483Y344506D01*
X345456Y344103D01*
X346500Y343966D01*
X347544Y344103D01*
X348517Y344506D01*
X349353Y345147D01*
X349994Y345983D01*
X350196Y346471D01*
X362804D01*
X363006Y345983D01*
X363647Y345147D01*
X364483Y344506D01*
X365456Y344103D01*
X366500Y343966D01*
X367544Y344103D01*
X368517Y344506D01*
X369353Y345147D01*
X369994Y345983D01*
X370397Y346956D01*
X370534Y348000D01*
X370397Y349044D01*
X369994Y350017D01*
X369353Y350853D01*
X368517Y351494D01*
X367544Y351897D01*
X366500Y352034D01*
D02*
G37*
G36*
X226500D02*
X225456Y351897D01*
X224483Y351494D01*
X223647Y350853D01*
X223006Y350017D01*
X222804Y349529D01*
X210196D01*
X209994Y350017D01*
X209353Y350853D01*
X208517Y351494D01*
X207544Y351897D01*
X206500Y352034D01*
X205456Y351897D01*
X204483Y351494D01*
X203647Y350853D01*
X203006Y350017D01*
X202804Y349529D01*
X190196D01*
X189994Y350017D01*
X189353Y350853D01*
X188517Y351494D01*
X187544Y351897D01*
X186500Y352034D01*
X185456Y351897D01*
X184483Y351494D01*
X183647Y350853D01*
X183006Y350017D01*
X182603Y349044D01*
X182466Y348000D01*
X182603Y346956D01*
X183006Y345983D01*
X183647Y345147D01*
X184483Y344506D01*
X185456Y344103D01*
X186500Y343966D01*
X187544Y344103D01*
X188517Y344506D01*
X189353Y345147D01*
X189994Y345983D01*
X190196Y346471D01*
X202804D01*
X203006Y345983D01*
X203647Y345147D01*
X204483Y344506D01*
X205456Y344103D01*
X206500Y343966D01*
X207544Y344103D01*
X208517Y344506D01*
X209353Y345147D01*
X209994Y345983D01*
X210196Y346471D01*
X222804D01*
X223006Y345983D01*
X223647Y345147D01*
X224483Y344506D01*
X225456Y344103D01*
X226500Y343966D01*
X227544Y344103D01*
X228517Y344506D01*
X229353Y345147D01*
X229994Y345983D01*
X230397Y346956D01*
X230535Y348000D01*
X230397Y349044D01*
X229994Y350017D01*
X229353Y350853D01*
X228517Y351494D01*
X227544Y351897D01*
X226500Y352034D01*
D02*
G37*
G36*
X366500Y342035D02*
X365456Y341897D01*
X364483Y341494D01*
X363647Y340853D01*
X363006Y340017D01*
X362804Y339529D01*
X350196D01*
X349994Y340017D01*
X349353Y340853D01*
X348517Y341494D01*
X347544Y341897D01*
X346500Y342035D01*
X345456Y341897D01*
X344483Y341494D01*
X343647Y340853D01*
X343006Y340017D01*
X342804Y339529D01*
X330196D01*
X329994Y340017D01*
X329353Y340853D01*
X328517Y341494D01*
X327544Y341897D01*
X326500Y342035D01*
X325456Y341897D01*
X324483Y341494D01*
X323647Y340853D01*
X323006Y340017D01*
X322603Y339044D01*
X322465Y338000D01*
X322603Y336956D01*
X323006Y335983D01*
X323647Y335147D01*
X324483Y334506D01*
X325456Y334103D01*
X326500Y333965D01*
X327544Y334103D01*
X328517Y334506D01*
X329353Y335147D01*
X329994Y335983D01*
X330196Y336471D01*
X342804D01*
X343006Y335983D01*
X343647Y335147D01*
X344483Y334506D01*
X345456Y334103D01*
X346500Y333965D01*
X347544Y334103D01*
X348517Y334506D01*
X349353Y335147D01*
X349994Y335983D01*
X350196Y336471D01*
X362804D01*
X363006Y335983D01*
X363647Y335147D01*
X364483Y334506D01*
X365456Y334103D01*
X366500Y333965D01*
X367544Y334103D01*
X368517Y334506D01*
X369353Y335147D01*
X369994Y335983D01*
X370397Y336956D01*
X370534Y338000D01*
X370397Y339044D01*
X369994Y340017D01*
X369353Y340853D01*
X368517Y341494D01*
X367544Y341897D01*
X366500Y342035D01*
D02*
G37*
G36*
X226500D02*
X225456Y341897D01*
X224483Y341494D01*
X223647Y340853D01*
X223006Y340017D01*
X222804Y339529D01*
X210196D01*
X209994Y340017D01*
X209353Y340853D01*
X208517Y341494D01*
X207544Y341897D01*
X206500Y342035D01*
X205456Y341897D01*
X204483Y341494D01*
X203647Y340853D01*
X203006Y340017D01*
X202804Y339529D01*
X190196D01*
X189994Y340017D01*
X189353Y340853D01*
X188517Y341494D01*
X187544Y341897D01*
X186500Y342035D01*
X185456Y341897D01*
X184483Y341494D01*
X183647Y340853D01*
X183006Y340017D01*
X182603Y339044D01*
X182466Y338000D01*
X182603Y336956D01*
X183006Y335983D01*
X183647Y335147D01*
X184483Y334506D01*
X185456Y334103D01*
X186500Y333965D01*
X187544Y334103D01*
X188517Y334506D01*
X189353Y335147D01*
X189994Y335983D01*
X190196Y336471D01*
X202804D01*
X203006Y335983D01*
X203647Y335147D01*
X204483Y334506D01*
X205456Y334103D01*
X206500Y333965D01*
X207544Y334103D01*
X208517Y334506D01*
X209353Y335147D01*
X209994Y335983D01*
X210196Y336471D01*
X222804D01*
X223006Y335983D01*
X223647Y335147D01*
X224483Y334506D01*
X225456Y334103D01*
X226500Y333965D01*
X227544Y334103D01*
X228517Y334506D01*
X229353Y335147D01*
X229994Y335983D01*
X230397Y336956D01*
X230535Y338000D01*
X230397Y339044D01*
X229994Y340017D01*
X229353Y340853D01*
X228517Y341494D01*
X227544Y341897D01*
X226500Y342035D01*
D02*
G37*
G36*
X366500Y332034D02*
X365456Y331897D01*
X364483Y331494D01*
X363647Y330853D01*
X363006Y330017D01*
X362804Y329529D01*
X350196D01*
X349994Y330017D01*
X349353Y330853D01*
X348517Y331494D01*
X347544Y331897D01*
X346500Y332034D01*
X345456Y331897D01*
X344483Y331494D01*
X343647Y330853D01*
X343006Y330017D01*
X342804Y329529D01*
X330196D01*
X329994Y330017D01*
X329353Y330853D01*
X328517Y331494D01*
X327544Y331897D01*
X326500Y332034D01*
X325456Y331897D01*
X324483Y331494D01*
X323647Y330853D01*
X323006Y330017D01*
X322603Y329044D01*
X322465Y328000D01*
X322603Y326956D01*
X323006Y325983D01*
X323647Y325147D01*
X324483Y324506D01*
X325456Y324103D01*
X326500Y323966D01*
X327544Y324103D01*
X328517Y324506D01*
X329353Y325147D01*
X329994Y325983D01*
X330196Y326471D01*
X342804D01*
X343006Y325983D01*
X343647Y325147D01*
X344483Y324506D01*
X345456Y324103D01*
X346500Y323966D01*
X347544Y324103D01*
X348517Y324506D01*
X349353Y325147D01*
X349994Y325983D01*
X350196Y326471D01*
X362804D01*
X363006Y325983D01*
X363647Y325147D01*
X364483Y324506D01*
X365456Y324103D01*
X366500Y323966D01*
X367544Y324103D01*
X368517Y324506D01*
X369353Y325147D01*
X369994Y325983D01*
X370397Y326956D01*
X370534Y328000D01*
X370397Y329044D01*
X369994Y330017D01*
X369353Y330853D01*
X368517Y331494D01*
X367544Y331897D01*
X366500Y332034D01*
D02*
G37*
G36*
X226500D02*
X225456Y331897D01*
X224483Y331494D01*
X223647Y330853D01*
X223006Y330017D01*
X222804Y329529D01*
X210196D01*
X209994Y330017D01*
X209353Y330853D01*
X208517Y331494D01*
X207544Y331897D01*
X206500Y332034D01*
X205456Y331897D01*
X204483Y331494D01*
X203647Y330853D01*
X203006Y330017D01*
X202804Y329529D01*
X190196D01*
X189994Y330017D01*
X189353Y330853D01*
X188517Y331494D01*
X187544Y331897D01*
X186500Y332034D01*
X185456Y331897D01*
X184483Y331494D01*
X183647Y330853D01*
X183006Y330017D01*
X182603Y329044D01*
X182466Y328000D01*
X182603Y326956D01*
X183006Y325983D01*
X183647Y325147D01*
X184483Y324506D01*
X185456Y324103D01*
X186500Y323966D01*
X187544Y324103D01*
X188517Y324506D01*
X189353Y325147D01*
X189994Y325983D01*
X190196Y326471D01*
X202804D01*
X203006Y325983D01*
X203647Y325147D01*
X204483Y324506D01*
X205456Y324103D01*
X206500Y323966D01*
X207544Y324103D01*
X208517Y324506D01*
X209353Y325147D01*
X209994Y325983D01*
X210196Y326471D01*
X222804D01*
X223006Y325983D01*
X223647Y325147D01*
X224483Y324506D01*
X225456Y324103D01*
X226500Y323966D01*
X227544Y324103D01*
X228517Y324506D01*
X229353Y325147D01*
X229994Y325983D01*
X230397Y326956D01*
X230535Y328000D01*
X230397Y329044D01*
X229994Y330017D01*
X229353Y330853D01*
X228517Y331494D01*
X227544Y331897D01*
X226500Y332034D01*
D02*
G37*
G36*
X366500Y322035D02*
X365456Y321897D01*
X364483Y321494D01*
X363647Y320853D01*
X363006Y320017D01*
X362804Y319529D01*
X350196D01*
X349994Y320017D01*
X349353Y320853D01*
X348517Y321494D01*
X347544Y321897D01*
X346500Y322035D01*
X345456Y321897D01*
X344483Y321494D01*
X343647Y320853D01*
X343006Y320017D01*
X342804Y319529D01*
X330196D01*
X329994Y320017D01*
X329353Y320853D01*
X328517Y321494D01*
X327544Y321897D01*
X326500Y322035D01*
X325456Y321897D01*
X324483Y321494D01*
X323647Y320853D01*
X323006Y320017D01*
X322603Y319044D01*
X322465Y318000D01*
X322603Y316956D01*
X323006Y315983D01*
X323647Y315147D01*
X324483Y314506D01*
X325456Y314103D01*
X326500Y313966D01*
X327544Y314103D01*
X328517Y314506D01*
X329353Y315147D01*
X329994Y315983D01*
X330196Y316471D01*
X342804D01*
X343006Y315983D01*
X343647Y315147D01*
X344483Y314506D01*
X345456Y314103D01*
X346500Y313966D01*
X347544Y314103D01*
X348517Y314506D01*
X349353Y315147D01*
X349994Y315983D01*
X350196Y316471D01*
X362804D01*
X363006Y315983D01*
X363647Y315147D01*
X364483Y314506D01*
X365456Y314103D01*
X366500Y313966D01*
X367544Y314103D01*
X368517Y314506D01*
X369353Y315147D01*
X369994Y315983D01*
X370397Y316956D01*
X370534Y318000D01*
X370397Y319044D01*
X369994Y320017D01*
X369353Y320853D01*
X368517Y321494D01*
X367544Y321897D01*
X366500Y322035D01*
D02*
G37*
G36*
X226500D02*
X225456Y321897D01*
X224483Y321494D01*
X223647Y320853D01*
X223006Y320017D01*
X222804Y319529D01*
X210196D01*
X209994Y320017D01*
X209353Y320853D01*
X208517Y321494D01*
X207544Y321897D01*
X206500Y322035D01*
X205456Y321897D01*
X204483Y321494D01*
X203647Y320853D01*
X203006Y320017D01*
X202804Y319529D01*
X190196D01*
X189994Y320017D01*
X189353Y320853D01*
X188517Y321494D01*
X187544Y321897D01*
X186500Y322035D01*
X185456Y321897D01*
X184483Y321494D01*
X183647Y320853D01*
X183006Y320017D01*
X182603Y319044D01*
X182466Y318000D01*
X182603Y316956D01*
X183006Y315983D01*
X183647Y315147D01*
X184483Y314506D01*
X185456Y314103D01*
X186500Y313966D01*
X187544Y314103D01*
X188517Y314506D01*
X189353Y315147D01*
X189994Y315983D01*
X190196Y316471D01*
X202804D01*
X203006Y315983D01*
X203647Y315147D01*
X204483Y314506D01*
X205456Y314103D01*
X206500Y313966D01*
X207544Y314103D01*
X208517Y314506D01*
X209353Y315147D01*
X209994Y315983D01*
X210196Y316471D01*
X222804D01*
X223006Y315983D01*
X223647Y315147D01*
X224483Y314506D01*
X225456Y314103D01*
X226500Y313966D01*
X227544Y314103D01*
X228517Y314506D01*
X229353Y315147D01*
X229994Y315983D01*
X230397Y316956D01*
X230535Y318000D01*
X230397Y319044D01*
X229994Y320017D01*
X229353Y320853D01*
X228517Y321494D01*
X227544Y321897D01*
X226500Y322035D01*
D02*
G37*
G36*
X366500Y312035D02*
X365456Y311897D01*
X364483Y311494D01*
X363647Y310853D01*
X363006Y310017D01*
X362804Y309529D01*
X350196D01*
X349994Y310017D01*
X349353Y310853D01*
X348517Y311494D01*
X347544Y311897D01*
X346500Y312035D01*
X345456Y311897D01*
X344483Y311494D01*
X343647Y310853D01*
X343006Y310017D01*
X342804Y309529D01*
X330196D01*
X329994Y310017D01*
X329353Y310853D01*
X328517Y311494D01*
X327544Y311897D01*
X326500Y312035D01*
X325456Y311897D01*
X324483Y311494D01*
X323647Y310853D01*
X323006Y310017D01*
X322603Y309044D01*
X322465Y308000D01*
X322603Y306956D01*
X323006Y305983D01*
X323647Y305147D01*
X324483Y304506D01*
X325456Y304103D01*
X326500Y303965D01*
X327544Y304103D01*
X328517Y304506D01*
X329353Y305147D01*
X329994Y305983D01*
X330196Y306471D01*
X342804D01*
X343006Y305983D01*
X343647Y305147D01*
X344483Y304506D01*
X345456Y304103D01*
X346500Y303965D01*
X347544Y304103D01*
X348517Y304506D01*
X349353Y305147D01*
X349994Y305983D01*
X350196Y306471D01*
X362804D01*
X363006Y305983D01*
X363647Y305147D01*
X364483Y304506D01*
X365456Y304103D01*
X366500Y303965D01*
X367544Y304103D01*
X368517Y304506D01*
X369353Y305147D01*
X369994Y305983D01*
X370397Y306956D01*
X370534Y308000D01*
X370397Y309044D01*
X369994Y310017D01*
X369353Y310853D01*
X368517Y311494D01*
X367544Y311897D01*
X366500Y312035D01*
D02*
G37*
G36*
X226500D02*
X225456Y311897D01*
X224483Y311494D01*
X223647Y310853D01*
X223006Y310017D01*
X222804Y309529D01*
X210196D01*
X209994Y310017D01*
X209353Y310853D01*
X208517Y311494D01*
X207544Y311897D01*
X206500Y312035D01*
X205456Y311897D01*
X204483Y311494D01*
X203647Y310853D01*
X203006Y310017D01*
X202804Y309529D01*
X190196D01*
X189994Y310017D01*
X189353Y310853D01*
X188517Y311494D01*
X187544Y311897D01*
X186500Y312035D01*
X185456Y311897D01*
X184483Y311494D01*
X183647Y310853D01*
X183006Y310017D01*
X182603Y309044D01*
X182466Y308000D01*
X182603Y306956D01*
X183006Y305983D01*
X183647Y305147D01*
X184483Y304506D01*
X185456Y304103D01*
X186500Y303965D01*
X187544Y304103D01*
X188517Y304506D01*
X189353Y305147D01*
X189994Y305983D01*
X190196Y306471D01*
X202804D01*
X203006Y305983D01*
X203647Y305147D01*
X204483Y304506D01*
X205456Y304103D01*
X206500Y303965D01*
X207544Y304103D01*
X208517Y304506D01*
X209353Y305147D01*
X209994Y305983D01*
X210196Y306471D01*
X222804D01*
X223006Y305983D01*
X223647Y305147D01*
X224483Y304506D01*
X225456Y304103D01*
X226500Y303965D01*
X227544Y304103D01*
X228517Y304506D01*
X229353Y305147D01*
X229994Y305983D01*
X230397Y306956D01*
X230535Y308000D01*
X230397Y309044D01*
X229994Y310017D01*
X229353Y310853D01*
X228517Y311494D01*
X227544Y311897D01*
X226500Y312035D01*
D02*
G37*
G36*
X366500Y302034D02*
X365456Y301897D01*
X364483Y301494D01*
X363647Y300853D01*
X363006Y300017D01*
X362804Y299529D01*
X350196D01*
X349994Y300017D01*
X349353Y300853D01*
X348517Y301494D01*
X347544Y301897D01*
X346500Y302034D01*
X345456Y301897D01*
X344483Y301494D01*
X343647Y300853D01*
X343006Y300017D01*
X342804Y299529D01*
X330196D01*
X329994Y300017D01*
X329353Y300853D01*
X328517Y301494D01*
X327544Y301897D01*
X326500Y302034D01*
X325456Y301897D01*
X324483Y301494D01*
X323647Y300853D01*
X323006Y300017D01*
X322603Y299044D01*
X322465Y298000D01*
X322603Y296956D01*
X323006Y295983D01*
X323647Y295147D01*
X324483Y294506D01*
X325456Y294103D01*
X326500Y293966D01*
X327544Y294103D01*
X328517Y294506D01*
X329353Y295147D01*
X329994Y295983D01*
X330196Y296471D01*
X342804D01*
X343006Y295983D01*
X343647Y295147D01*
X344483Y294506D01*
X345456Y294103D01*
X346500Y293966D01*
X347544Y294103D01*
X348517Y294506D01*
X349353Y295147D01*
X349994Y295983D01*
X350196Y296471D01*
X362804D01*
X363006Y295983D01*
X363647Y295147D01*
X364483Y294506D01*
X365456Y294103D01*
X366500Y293966D01*
X367544Y294103D01*
X368517Y294506D01*
X369353Y295147D01*
X369994Y295983D01*
X370397Y296956D01*
X370534Y298000D01*
X370397Y299044D01*
X369994Y300017D01*
X369353Y300853D01*
X368517Y301494D01*
X367544Y301897D01*
X366500Y302034D01*
D02*
G37*
G36*
X226500D02*
X225456Y301897D01*
X224483Y301494D01*
X223647Y300853D01*
X223006Y300017D01*
X222804Y299529D01*
X210196D01*
X209994Y300017D01*
X209353Y300853D01*
X208517Y301494D01*
X207544Y301897D01*
X206500Y302034D01*
X205456Y301897D01*
X204483Y301494D01*
X203647Y300853D01*
X203006Y300017D01*
X202804Y299529D01*
X190196D01*
X189994Y300017D01*
X189353Y300853D01*
X188517Y301494D01*
X187544Y301897D01*
X186500Y302034D01*
X185456Y301897D01*
X184483Y301494D01*
X183647Y300853D01*
X183006Y300017D01*
X182603Y299044D01*
X182466Y298000D01*
X182603Y296956D01*
X183006Y295983D01*
X183647Y295147D01*
X184483Y294506D01*
X185456Y294103D01*
X186500Y293966D01*
X187544Y294103D01*
X188517Y294506D01*
X189353Y295147D01*
X189994Y295983D01*
X190196Y296471D01*
X202804D01*
X203006Y295983D01*
X203647Y295147D01*
X204483Y294506D01*
X205456Y294103D01*
X206500Y293966D01*
X207544Y294103D01*
X208517Y294506D01*
X209353Y295147D01*
X209994Y295983D01*
X210196Y296471D01*
X222804D01*
X223006Y295983D01*
X223647Y295147D01*
X224483Y294506D01*
X225456Y294103D01*
X226500Y293966D01*
X227544Y294103D01*
X228517Y294506D01*
X229353Y295147D01*
X229994Y295983D01*
X230397Y296956D01*
X230535Y298000D01*
X230397Y299044D01*
X229994Y300017D01*
X229353Y300853D01*
X228517Y301494D01*
X227544Y301897D01*
X226500Y302034D01*
D02*
G37*
G36*
X366500Y292035D02*
X365456Y291897D01*
X364483Y291494D01*
X363647Y290853D01*
X363006Y290017D01*
X362804Y289529D01*
X350196D01*
X349994Y290017D01*
X349353Y290853D01*
X348517Y291494D01*
X347544Y291897D01*
X346500Y292035D01*
X345456Y291897D01*
X344483Y291494D01*
X343647Y290853D01*
X343006Y290017D01*
X342804Y289529D01*
X330196D01*
X329994Y290017D01*
X329353Y290853D01*
X328517Y291494D01*
X327544Y291897D01*
X326500Y292035D01*
X325456Y291897D01*
X324483Y291494D01*
X323647Y290853D01*
X323006Y290017D01*
X322603Y289044D01*
X322465Y288000D01*
X322603Y286956D01*
X323006Y285983D01*
X323647Y285147D01*
X324483Y284506D01*
X325456Y284103D01*
X326500Y283965D01*
X327544Y284103D01*
X328517Y284506D01*
X329353Y285147D01*
X329994Y285983D01*
X330196Y286471D01*
X342804D01*
X343006Y285983D01*
X343647Y285147D01*
X344483Y284506D01*
X345456Y284103D01*
X346500Y283965D01*
X347544Y284103D01*
X348517Y284506D01*
X349353Y285147D01*
X349994Y285983D01*
X350196Y286471D01*
X362804D01*
X363006Y285983D01*
X363647Y285147D01*
X364483Y284506D01*
X365456Y284103D01*
X366500Y283965D01*
X367544Y284103D01*
X368517Y284506D01*
X369353Y285147D01*
X369994Y285983D01*
X370397Y286956D01*
X370534Y288000D01*
X370397Y289044D01*
X369994Y290017D01*
X369353Y290853D01*
X368517Y291494D01*
X367544Y291897D01*
X366500Y292035D01*
D02*
G37*
G36*
X226500D02*
X225456Y291897D01*
X224483Y291494D01*
X223647Y290853D01*
X223006Y290017D01*
X222804Y289529D01*
X210196D01*
X209994Y290017D01*
X209353Y290853D01*
X208517Y291494D01*
X207544Y291897D01*
X206500Y292035D01*
X205456Y291897D01*
X204483Y291494D01*
X203647Y290853D01*
X203006Y290017D01*
X202804Y289529D01*
X190196D01*
X189994Y290017D01*
X189353Y290853D01*
X188517Y291494D01*
X187544Y291897D01*
X186500Y292035D01*
X185456Y291897D01*
X184483Y291494D01*
X183647Y290853D01*
X183006Y290017D01*
X182603Y289044D01*
X182466Y288000D01*
X182603Y286956D01*
X183006Y285983D01*
X183647Y285147D01*
X184483Y284506D01*
X185456Y284103D01*
X186500Y283965D01*
X187544Y284103D01*
X188517Y284506D01*
X189353Y285147D01*
X189994Y285983D01*
X190196Y286471D01*
X202804D01*
X203006Y285983D01*
X203647Y285147D01*
X204483Y284506D01*
X205456Y284103D01*
X206500Y283965D01*
X207544Y284103D01*
X208517Y284506D01*
X209353Y285147D01*
X209994Y285983D01*
X210196Y286471D01*
X222804D01*
X223006Y285983D01*
X223647Y285147D01*
X224483Y284506D01*
X225456Y284103D01*
X226500Y283965D01*
X227544Y284103D01*
X228517Y284506D01*
X229353Y285147D01*
X229994Y285983D01*
X230397Y286956D01*
X230535Y288000D01*
X230397Y289044D01*
X229994Y290017D01*
X229353Y290853D01*
X228517Y291494D01*
X227544Y291897D01*
X226500Y292035D01*
D02*
G37*
G36*
X366500Y282034D02*
X365456Y281897D01*
X364483Y281494D01*
X363647Y280853D01*
X363006Y280017D01*
X362804Y279529D01*
X350196D01*
X349994Y280017D01*
X349353Y280853D01*
X348517Y281494D01*
X347544Y281897D01*
X346500Y282034D01*
X345456Y281897D01*
X344483Y281494D01*
X343647Y280853D01*
X343006Y280017D01*
X342804Y279529D01*
X330196D01*
X329994Y280017D01*
X329353Y280853D01*
X328517Y281494D01*
X327544Y281897D01*
X326500Y282034D01*
X325456Y281897D01*
X324483Y281494D01*
X323647Y280853D01*
X323006Y280017D01*
X322603Y279044D01*
X322465Y278000D01*
X322603Y276956D01*
X323006Y275983D01*
X323647Y275147D01*
X324483Y274506D01*
X325456Y274103D01*
X326500Y273966D01*
X327544Y274103D01*
X328517Y274506D01*
X329353Y275147D01*
X329994Y275983D01*
X330196Y276471D01*
X342804D01*
X343006Y275983D01*
X343647Y275147D01*
X344483Y274506D01*
X345456Y274103D01*
X346500Y273966D01*
X347544Y274103D01*
X348517Y274506D01*
X349353Y275147D01*
X349994Y275983D01*
X350196Y276471D01*
X362804D01*
X363006Y275983D01*
X363647Y275147D01*
X364483Y274506D01*
X365456Y274103D01*
X366500Y273966D01*
X367544Y274103D01*
X368517Y274506D01*
X369353Y275147D01*
X369994Y275983D01*
X370397Y276956D01*
X370534Y278000D01*
X370397Y279044D01*
X369994Y280017D01*
X369353Y280853D01*
X368517Y281494D01*
X367544Y281897D01*
X366500Y282034D01*
D02*
G37*
G36*
X226500D02*
X225456Y281897D01*
X224483Y281494D01*
X223647Y280853D01*
X223006Y280017D01*
X222804Y279529D01*
X210196D01*
X209994Y280017D01*
X209353Y280853D01*
X208517Y281494D01*
X207544Y281897D01*
X206500Y282034D01*
X205456Y281897D01*
X204483Y281494D01*
X203647Y280853D01*
X203006Y280017D01*
X202804Y279529D01*
X190196D01*
X189994Y280017D01*
X189353Y280853D01*
X188517Y281494D01*
X187544Y281897D01*
X186500Y282034D01*
X185456Y281897D01*
X184483Y281494D01*
X183647Y280853D01*
X183006Y280017D01*
X182603Y279044D01*
X182466Y278000D01*
X182603Y276956D01*
X183006Y275983D01*
X183647Y275147D01*
X184483Y274506D01*
X185456Y274103D01*
X186500Y273966D01*
X187544Y274103D01*
X188517Y274506D01*
X189353Y275147D01*
X189994Y275983D01*
X190196Y276471D01*
X202804D01*
X203006Y275983D01*
X203647Y275147D01*
X204483Y274506D01*
X205456Y274103D01*
X206500Y273966D01*
X207544Y274103D01*
X208517Y274506D01*
X209353Y275147D01*
X209994Y275983D01*
X210196Y276471D01*
X222804D01*
X223006Y275983D01*
X223647Y275147D01*
X224483Y274506D01*
X225456Y274103D01*
X226500Y273966D01*
X227544Y274103D01*
X228517Y274506D01*
X229353Y275147D01*
X229994Y275983D01*
X230397Y276956D01*
X230535Y278000D01*
X230397Y279044D01*
X229994Y280017D01*
X229353Y280853D01*
X228517Y281494D01*
X227544Y281897D01*
X226500Y282034D01*
D02*
G37*
G36*
X317000Y233469D02*
Y230000D01*
X320469D01*
X320397Y230544D01*
X319994Y231517D01*
X319353Y232353D01*
X318517Y232994D01*
X317544Y233397D01*
X317000Y233469D01*
D02*
G37*
G36*
X307000D02*
Y230000D01*
X310469D01*
X310397Y230544D01*
X309994Y231517D01*
X309353Y232353D01*
X308517Y232994D01*
X307544Y233397D01*
X307000Y233469D01*
D02*
G37*
G36*
X297000D02*
Y230000D01*
X300469D01*
X300397Y230544D01*
X299994Y231517D01*
X299353Y232353D01*
X298517Y232994D01*
X297544Y233397D01*
X297000Y233469D01*
D02*
G37*
G36*
X287000D02*
Y230000D01*
X290469D01*
X290397Y230544D01*
X289994Y231517D01*
X289353Y232353D01*
X288517Y232994D01*
X287544Y233397D01*
X287000Y233469D01*
D02*
G37*
G36*
X274500D02*
Y230000D01*
X277969D01*
X277897Y230544D01*
X277494Y231517D01*
X276853Y232353D01*
X276017Y232994D01*
X275044Y233397D01*
X274500Y233469D01*
D02*
G37*
G36*
X264500D02*
Y230000D01*
X267969D01*
X267897Y230544D01*
X267494Y231517D01*
X266853Y232353D01*
X266017Y232994D01*
X265044Y233397D01*
X264500Y233469D01*
D02*
G37*
G36*
X254500D02*
Y230000D01*
X257969D01*
X257897Y230544D01*
X257494Y231517D01*
X256853Y232353D01*
X256017Y232994D01*
X255044Y233397D01*
X254500Y233469D01*
D02*
G37*
G36*
X244500D02*
Y230000D01*
X247969D01*
X247897Y230544D01*
X247494Y231517D01*
X246853Y232353D01*
X246017Y232994D01*
X245044Y233397D01*
X244500Y233469D01*
D02*
G37*
G36*
X243500D02*
X242956Y233397D01*
X241983Y232994D01*
X241147Y232353D01*
X240506Y231517D01*
X240103Y230544D01*
X240031Y230000D01*
X243500D01*
Y233469D01*
D02*
G37*
G36*
X286000D02*
X285456Y233397D01*
X284483Y232994D01*
X283647Y232353D01*
X283006Y231517D01*
X282603Y230544D01*
X282531Y230000D01*
X286000D01*
Y233469D01*
D02*
G37*
G36*
X273500D02*
X272956Y233397D01*
X271983Y232994D01*
X271147Y232353D01*
X270506Y231517D01*
X270103Y230544D01*
X270031Y230000D01*
X273500D01*
Y233469D01*
D02*
G37*
G36*
X263500D02*
X262956Y233397D01*
X261983Y232994D01*
X261147Y232353D01*
X260506Y231517D01*
X260103Y230544D01*
X260031Y230000D01*
X263500D01*
Y233469D01*
D02*
G37*
G36*
X316000D02*
X315456Y233397D01*
X314483Y232994D01*
X313647Y232353D01*
X313006Y231517D01*
X312603Y230544D01*
X312531Y230000D01*
X316000D01*
Y233469D01*
D02*
G37*
G36*
X306000D02*
X305456Y233397D01*
X304483Y232994D01*
X303647Y232353D01*
X303006Y231517D01*
X302603Y230544D01*
X302531Y230000D01*
X306000D01*
Y233469D01*
D02*
G37*
G36*
X253500D02*
X252956Y233397D01*
X251983Y232994D01*
X251147Y232353D01*
X250506Y231517D01*
X250103Y230544D01*
X250031Y230000D01*
X253500D01*
Y233469D01*
D02*
G37*
G36*
X296000D02*
X295456Y233397D01*
X294483Y232994D01*
X293647Y232353D01*
X293006Y231517D01*
X292603Y230544D01*
X292531Y230000D01*
X296000D01*
Y233469D01*
D02*
G37*
G36*
X310469Y229000D02*
X307000D01*
Y225531D01*
X307544Y225603D01*
X308517Y226006D01*
X309353Y226647D01*
X309994Y227483D01*
X310397Y228456D01*
X310469Y229000D01*
D02*
G37*
G36*
X300469D02*
X297000D01*
Y225531D01*
X297544Y225603D01*
X298517Y226006D01*
X299353Y226647D01*
X299994Y227483D01*
X300397Y228456D01*
X300469Y229000D01*
D02*
G37*
G36*
X257969D02*
X254500D01*
Y225531D01*
X255044Y225603D01*
X256017Y226006D01*
X256853Y226647D01*
X257494Y227483D01*
X257897Y228456D01*
X257969Y229000D01*
D02*
G37*
G36*
X320469D02*
X317000D01*
Y225531D01*
X317544Y225603D01*
X318517Y226006D01*
X319353Y226647D01*
X319994Y227483D01*
X320397Y228456D01*
X320469Y229000D01*
D02*
G37*
G36*
X290469D02*
X287000D01*
Y225531D01*
X287544Y225603D01*
X288517Y226006D01*
X289353Y226647D01*
X289994Y227483D01*
X290397Y228456D01*
X290469Y229000D01*
D02*
G37*
G36*
X277969D02*
X274500D01*
Y225531D01*
X275044Y225603D01*
X276017Y226006D01*
X276853Y226647D01*
X277494Y227483D01*
X277897Y228456D01*
X277969Y229000D01*
D02*
G37*
G36*
X267969D02*
X264500D01*
Y225531D01*
X265044Y225603D01*
X266017Y226006D01*
X266853Y226647D01*
X267494Y227483D01*
X267897Y228456D01*
X267969Y229000D01*
D02*
G37*
G36*
X247969D02*
X244500D01*
Y225531D01*
X245044Y225603D01*
X246017Y226006D01*
X246853Y226647D01*
X247494Y227483D01*
X247897Y228456D01*
X247969Y229000D01*
D02*
G37*
G36*
X243500D02*
X240031D01*
X240103Y228456D01*
X240506Y227483D01*
X241147Y226647D01*
X241983Y226006D01*
X242956Y225603D01*
X243500Y225531D01*
Y229000D01*
D02*
G37*
G36*
X316000D02*
X312531D01*
X312603Y228456D01*
X313006Y227483D01*
X313647Y226647D01*
X314483Y226006D01*
X315456Y225603D01*
X316000Y225531D01*
Y229000D01*
D02*
G37*
G36*
X286000D02*
X282531D01*
X282603Y228456D01*
X283006Y227483D01*
X283647Y226647D01*
X284483Y226006D01*
X285456Y225603D01*
X286000Y225531D01*
Y229000D01*
D02*
G37*
G36*
X273500D02*
X270031D01*
X270103Y228456D01*
X270506Y227483D01*
X271147Y226647D01*
X271983Y226006D01*
X272956Y225603D01*
X273500Y225531D01*
Y229000D01*
D02*
G37*
G36*
X263500D02*
X260031D01*
X260103Y228456D01*
X260506Y227483D01*
X261147Y226647D01*
X261983Y226006D01*
X262956Y225603D01*
X263500Y225531D01*
Y229000D01*
D02*
G37*
G36*
X306000D02*
X302531D01*
X302603Y228456D01*
X303006Y227483D01*
X303647Y226647D01*
X304483Y226006D01*
X305456Y225603D01*
X306000Y225531D01*
Y229000D01*
D02*
G37*
G36*
X296000D02*
X292531D01*
X292603Y228456D01*
X293006Y227483D01*
X293647Y226647D01*
X294483Y226006D01*
X295456Y225603D01*
X296000Y225531D01*
Y229000D01*
D02*
G37*
G36*
X253500D02*
X250031D01*
X250103Y228456D01*
X250506Y227483D01*
X251147Y226647D01*
X251983Y226006D01*
X252956Y225603D01*
X253500Y225531D01*
Y229000D01*
D02*
G37*
G36*
X317000Y223469D02*
Y220000D01*
X320469D01*
X320397Y220544D01*
X319994Y221517D01*
X319353Y222353D01*
X318517Y222994D01*
X317544Y223397D01*
X317000Y223469D01*
D02*
G37*
G36*
X307000D02*
Y220000D01*
X310469D01*
X310397Y220544D01*
X309994Y221517D01*
X309353Y222353D01*
X308517Y222994D01*
X307544Y223397D01*
X307000Y223469D01*
D02*
G37*
G36*
X297000D02*
Y220000D01*
X300469D01*
X300397Y220544D01*
X299994Y221517D01*
X299353Y222353D01*
X298517Y222994D01*
X297544Y223397D01*
X297000Y223469D01*
D02*
G37*
G36*
X287000D02*
Y220000D01*
X290469D01*
X290397Y220544D01*
X289994Y221517D01*
X289353Y222353D01*
X288517Y222994D01*
X287544Y223397D01*
X287000Y223469D01*
D02*
G37*
G36*
X274500D02*
Y220000D01*
X277969D01*
X277897Y220544D01*
X277494Y221517D01*
X276853Y222353D01*
X276017Y222994D01*
X275044Y223397D01*
X274500Y223469D01*
D02*
G37*
G36*
X264500D02*
Y220000D01*
X267969D01*
X267897Y220544D01*
X267494Y221517D01*
X266853Y222353D01*
X266017Y222994D01*
X265044Y223397D01*
X264500Y223469D01*
D02*
G37*
G36*
X254500D02*
Y220000D01*
X257969D01*
X257897Y220544D01*
X257494Y221517D01*
X256853Y222353D01*
X256017Y222994D01*
X255044Y223397D01*
X254500Y223469D01*
D02*
G37*
G36*
X244500D02*
Y220000D01*
X247969D01*
X247897Y220544D01*
X247494Y221517D01*
X246853Y222353D01*
X246017Y222994D01*
X245044Y223397D01*
X244500Y223469D01*
D02*
G37*
G36*
X243500D02*
X242956Y223397D01*
X241983Y222994D01*
X241147Y222353D01*
X240506Y221517D01*
X240103Y220544D01*
X240031Y220000D01*
X243500D01*
Y223469D01*
D02*
G37*
G36*
X286000D02*
X285456Y223397D01*
X284483Y222994D01*
X283647Y222353D01*
X283006Y221517D01*
X282603Y220544D01*
X282531Y220000D01*
X286000D01*
Y223469D01*
D02*
G37*
G36*
X273500D02*
X272956Y223397D01*
X271983Y222994D01*
X271147Y222353D01*
X270506Y221517D01*
X270103Y220544D01*
X270031Y220000D01*
X273500D01*
Y223469D01*
D02*
G37*
G36*
X263500D02*
X262956Y223397D01*
X261983Y222994D01*
X261147Y222353D01*
X260506Y221517D01*
X260103Y220544D01*
X260031Y220000D01*
X263500D01*
Y223469D01*
D02*
G37*
G36*
X316000D02*
X315456Y223397D01*
X314483Y222994D01*
X313647Y222353D01*
X313006Y221517D01*
X312603Y220544D01*
X312531Y220000D01*
X316000D01*
Y223469D01*
D02*
G37*
G36*
X306000D02*
X305456Y223397D01*
X304483Y222994D01*
X303647Y222353D01*
X303006Y221517D01*
X302603Y220544D01*
X302531Y220000D01*
X306000D01*
Y223469D01*
D02*
G37*
G36*
X253500D02*
X252956Y223397D01*
X251983Y222994D01*
X251147Y222353D01*
X250506Y221517D01*
X250103Y220544D01*
X250031Y220000D01*
X253500D01*
Y223469D01*
D02*
G37*
G36*
X296000D02*
X295456Y223397D01*
X294483Y222994D01*
X293647Y222353D01*
X293006Y221517D01*
X292603Y220544D01*
X292531Y220000D01*
X296000D01*
Y223469D01*
D02*
G37*
G36*
X310469Y219000D02*
X307000D01*
Y215531D01*
X307544Y215603D01*
X308517Y216006D01*
X309353Y216647D01*
X309994Y217483D01*
X310397Y218456D01*
X310469Y219000D01*
D02*
G37*
G36*
X300469D02*
X297000D01*
Y215531D01*
X297544Y215603D01*
X298517Y216006D01*
X299353Y216647D01*
X299994Y217483D01*
X300397Y218456D01*
X300469Y219000D01*
D02*
G37*
G36*
X257969D02*
X254500D01*
Y215531D01*
X255044Y215603D01*
X256017Y216006D01*
X256853Y216647D01*
X257494Y217483D01*
X257897Y218456D01*
X257969Y219000D01*
D02*
G37*
G36*
X320469D02*
X317000D01*
Y215531D01*
X317544Y215603D01*
X318517Y216006D01*
X319353Y216647D01*
X319994Y217483D01*
X320397Y218456D01*
X320469Y219000D01*
D02*
G37*
G36*
X290469D02*
X287000D01*
Y215531D01*
X287544Y215603D01*
X288517Y216006D01*
X289353Y216647D01*
X289994Y217483D01*
X290397Y218456D01*
X290469Y219000D01*
D02*
G37*
G36*
X277969D02*
X274500D01*
Y215531D01*
X275044Y215603D01*
X276017Y216006D01*
X276853Y216647D01*
X277494Y217483D01*
X277897Y218456D01*
X277969Y219000D01*
D02*
G37*
G36*
X267969D02*
X264500D01*
Y215531D01*
X265044Y215603D01*
X266017Y216006D01*
X266853Y216647D01*
X267494Y217483D01*
X267897Y218456D01*
X267969Y219000D01*
D02*
G37*
G36*
X247969D02*
X244500D01*
Y215531D01*
X245044Y215603D01*
X246017Y216006D01*
X246853Y216647D01*
X247494Y217483D01*
X247897Y218456D01*
X247969Y219000D01*
D02*
G37*
G36*
X243500D02*
X240031D01*
X240103Y218456D01*
X240506Y217483D01*
X241147Y216647D01*
X241983Y216006D01*
X242956Y215603D01*
X243500Y215531D01*
Y219000D01*
D02*
G37*
G36*
X316000D02*
X312531D01*
X312603Y218456D01*
X313006Y217483D01*
X313647Y216647D01*
X314483Y216006D01*
X315456Y215603D01*
X316000Y215531D01*
Y219000D01*
D02*
G37*
G36*
X286000D02*
X282531D01*
X282603Y218456D01*
X283006Y217483D01*
X283647Y216647D01*
X284483Y216006D01*
X285456Y215603D01*
X286000Y215531D01*
Y219000D01*
D02*
G37*
G36*
X273500D02*
X270031D01*
X270103Y218456D01*
X270506Y217483D01*
X271147Y216647D01*
X271983Y216006D01*
X272956Y215603D01*
X273500Y215531D01*
Y219000D01*
D02*
G37*
G36*
X263500D02*
X260031D01*
X260103Y218456D01*
X260506Y217483D01*
X261147Y216647D01*
X261983Y216006D01*
X262956Y215603D01*
X263500Y215531D01*
Y219000D01*
D02*
G37*
G36*
X306000D02*
X302531D01*
X302603Y218456D01*
X303006Y217483D01*
X303647Y216647D01*
X304483Y216006D01*
X305456Y215603D01*
X306000Y215531D01*
Y219000D01*
D02*
G37*
G36*
X296000D02*
X292531D01*
X292603Y218456D01*
X293006Y217483D01*
X293647Y216647D01*
X294483Y216006D01*
X295456Y215603D01*
X296000Y215531D01*
Y219000D01*
D02*
G37*
G36*
X253500D02*
X250031D01*
X250103Y218456D01*
X250506Y217483D01*
X251147Y216647D01*
X251983Y216006D01*
X252956Y215603D01*
X253500Y215531D01*
Y219000D01*
D02*
G37*
%LPD*%
D10*
X377500Y242000D02*
Y252000D01*
Y229500D02*
Y242000D01*
Y219500D02*
Y229500D01*
X367500Y242000D02*
Y252000D01*
Y219500D02*
Y229500D01*
X357500Y242000D02*
Y252000D01*
Y229500D02*
Y242000D01*
Y221500D02*
Y229500D01*
X347500Y242000D02*
Y252000D01*
Y229500D02*
Y242000D01*
Y219500D02*
Y229500D01*
X367500Y219500D02*
X377500D01*
X357500Y229500D02*
X367500D01*
X347500D02*
X357500D01*
X367500Y252000D02*
X377500D01*
X310500Y266500D02*
X347500Y229500D01*
X310500Y266500D02*
Y402000D01*
X326500Y418000D01*
X209500Y242000D02*
Y252000D01*
Y229000D02*
Y242000D01*
Y219000D02*
Y229000D01*
X198000Y219000D02*
X199500D01*
X198000D02*
X199500Y220500D01*
Y242000D02*
Y252000D01*
Y220500D02*
Y229000D01*
X189500Y242000D02*
Y252000D01*
Y229000D02*
Y242000D01*
Y219000D02*
Y229000D01*
X179500Y242000D02*
Y252000D01*
Y229000D02*
Y242000D01*
Y219000D02*
Y229000D01*
X199500Y219000D02*
X209500D01*
X189500Y229000D02*
X199500D01*
X179500D02*
X189500D01*
X199500Y252000D02*
X209500D01*
X170500Y261000D02*
X179500Y252000D01*
X170500Y261000D02*
Y402000D01*
X186500Y418000D01*
X346500Y278000D02*
X366500D01*
X326500D02*
X346500D01*
Y288000D02*
X366500D01*
X326500D02*
X346500D01*
Y298000D02*
X366500D01*
X326500D02*
X346500D01*
Y308000D02*
X366500D01*
X326500D02*
X346500D01*
Y318000D02*
X366500D01*
X326500D02*
X346500D01*
X326500Y328000D02*
X346500D01*
X366500D01*
X346500Y338000D02*
X366500D01*
X326500D02*
X346500D01*
Y348000D02*
X366500D01*
X326500D02*
X346500D01*
Y358000D02*
X366500D01*
X326500D02*
X346500D01*
Y368000D02*
X366500D01*
X326500D02*
X346500D01*
Y378000D02*
X366500D01*
X326500D02*
X346500D01*
Y388000D02*
X366500D01*
X326500D02*
X346500D01*
Y398000D02*
X366500D01*
X326500D02*
X346500D01*
Y408000D02*
X366500D01*
X326500D02*
X346500D01*
Y418000D02*
X366500D01*
X326500D02*
X346500D01*
X206500D02*
X226500D01*
X206500Y408000D02*
X226500D01*
X206500Y398000D02*
X226500D01*
X206500Y388000D02*
X226500D01*
X206500Y378000D02*
X226500D01*
X206500Y368000D02*
X226500D01*
X206500Y358000D02*
X226500D01*
X206500Y348000D02*
X226500D01*
X206500Y338000D02*
X226500D01*
X206500Y328000D02*
X226500D01*
X206500Y318000D02*
X226500D01*
X206500Y308000D02*
X226500D01*
X206500Y298000D02*
X226500D01*
X206500Y288000D02*
X226500D01*
X206500Y278000D02*
X226500D01*
X186500D02*
X206500D01*
X186500Y288000D02*
X206500D01*
X186500Y298000D02*
X206500D01*
X186500Y308000D02*
X206500D01*
X186500Y318000D02*
X206500D01*
X186500Y328000D02*
X206500D01*
X186500Y338000D02*
X206500D01*
X186500Y348000D02*
X206500D01*
X186500Y358000D02*
X206500D01*
X186500Y368000D02*
X206500D01*
X186500Y378000D02*
X206500D01*
X186500Y388000D02*
X206500D01*
X186500Y398000D02*
X206500D01*
X186500Y408000D02*
X206500D01*
X186500Y418000D02*
X206500D01*
D12*
X357500Y219500D02*
D03*
Y229500D02*
D03*
X347500D02*
D03*
Y219500D02*
D03*
X367500D02*
D03*
Y229500D02*
D03*
X377500D02*
D03*
Y219500D02*
D03*
X357500Y242000D02*
D03*
Y252000D02*
D03*
X347500D02*
D03*
Y242000D02*
D03*
X367500D02*
D03*
Y252000D02*
D03*
X377500D02*
D03*
Y242000D02*
D03*
X296500Y219500D02*
D03*
Y229500D02*
D03*
X286500D02*
D03*
Y219500D02*
D03*
X306500D02*
D03*
Y229500D02*
D03*
X316500D02*
D03*
Y219500D02*
D03*
X189500Y219000D02*
D03*
Y229000D02*
D03*
X179500D02*
D03*
Y219000D02*
D03*
X199500D02*
D03*
Y229000D02*
D03*
X209500D02*
D03*
Y219000D02*
D03*
X366500Y278000D02*
D03*
Y288000D02*
D03*
Y308000D02*
D03*
Y298000D02*
D03*
Y338000D02*
D03*
Y348000D02*
D03*
Y328000D02*
D03*
Y318000D02*
D03*
Y398000D02*
D03*
Y408000D02*
D03*
Y418000D02*
D03*
Y378000D02*
D03*
Y388000D02*
D03*
Y368000D02*
D03*
Y358000D02*
D03*
X346500Y278000D02*
D03*
Y288000D02*
D03*
Y308000D02*
D03*
Y298000D02*
D03*
Y338000D02*
D03*
Y348000D02*
D03*
Y328000D02*
D03*
Y318000D02*
D03*
Y398000D02*
D03*
Y408000D02*
D03*
Y418000D02*
D03*
Y378000D02*
D03*
Y388000D02*
D03*
Y368000D02*
D03*
Y358000D02*
D03*
X326500Y278000D02*
D03*
Y288000D02*
D03*
Y308000D02*
D03*
Y298000D02*
D03*
Y338000D02*
D03*
Y348000D02*
D03*
Y328000D02*
D03*
Y318000D02*
D03*
Y398000D02*
D03*
Y408000D02*
D03*
Y418000D02*
D03*
Y378000D02*
D03*
Y388000D02*
D03*
Y368000D02*
D03*
Y358000D02*
D03*
X226500Y278000D02*
D03*
Y288000D02*
D03*
Y308000D02*
D03*
Y298000D02*
D03*
Y338000D02*
D03*
Y348000D02*
D03*
Y328000D02*
D03*
Y318000D02*
D03*
Y398000D02*
D03*
Y408000D02*
D03*
Y418000D02*
D03*
Y378000D02*
D03*
Y388000D02*
D03*
Y368000D02*
D03*
Y358000D02*
D03*
X206500Y278000D02*
D03*
Y288000D02*
D03*
Y308000D02*
D03*
Y298000D02*
D03*
Y338000D02*
D03*
Y348000D02*
D03*
Y328000D02*
D03*
Y318000D02*
D03*
Y398000D02*
D03*
Y408000D02*
D03*
Y418000D02*
D03*
Y378000D02*
D03*
Y388000D02*
D03*
Y368000D02*
D03*
Y358000D02*
D03*
X186500Y278000D02*
D03*
Y288000D02*
D03*
Y308000D02*
D03*
Y298000D02*
D03*
Y338000D02*
D03*
Y348000D02*
D03*
Y328000D02*
D03*
Y318000D02*
D03*
Y398000D02*
D03*
Y408000D02*
D03*
Y418000D02*
D03*
Y378000D02*
D03*
Y388000D02*
D03*
Y368000D02*
D03*
Y358000D02*
D03*
X274000Y219500D02*
D03*
Y229500D02*
D03*
X264000D02*
D03*
Y219500D02*
D03*
X244000D02*
D03*
Y229500D02*
D03*
X254000D02*
D03*
Y219500D02*
D03*
X209500Y242000D02*
D03*
Y252000D02*
D03*
X199500D02*
D03*
Y242000D02*
D03*
X179500D02*
D03*
Y252000D02*
D03*
X189500D02*
D03*
Y242000D02*
D03*
M02*
