M48
;Layer_Color=9474304
;FILE_FORMAT=2:5
INCH,LZ
;TYPE=PLATED
T1F00S00C0.03000
%
T01
X03165Y02195
Y02295
X03475
X03575
Y02195
X03475
X03675
Y02295
X03775
Y02195
Y0242
X03675
X03575
Y0252
X03475
Y0242
X03675Y0252
X03775
X03665Y0278
Y0288
Y0298
Y0308
X03465
Y0298
Y0288
Y0278
X03265
Y0288
Y0298
Y0308
X03065Y02295
X02965
Y02195
X02865
Y02295
X0274
Y02195
X0264
Y02295
X0254
X0244
Y02195
X0254
X02095Y0219
X01995
X01895
Y0229
X01795
Y0219
Y0242
Y0252
X01895
X01995
X02095
Y0242
X01995
X01895
X01995Y0229
X02095
X02065Y0278
Y0288
Y0298
Y0308
X02265
Y0298
Y0288
Y0278
X01865
Y0288
Y0298
Y0308
X03065Y02195
X02265Y0318
Y0328
Y0338
Y0348
Y0358
Y0368
Y0378
Y0388
Y0398
Y0408
Y0418
X02065
Y0408
Y0398
Y0388
Y0378
Y0368
Y0358
Y0348
Y0338
Y0328
Y0318
X01865
Y0328
Y0338
Y0348
Y0358
Y0368
Y0378
Y0388
Y0398
Y0408
Y0418
X03265
Y0408
Y0398
Y0388
Y0378
Y0368
Y0358
Y0348
Y0338
Y0328
Y0318
X03465
Y0328
Y0338
Y0348
Y0358
Y0368
Y0378
Y0388
Y0398
Y0408
Y0418
X03665
Y0408
Y0398
Y0388
Y0378
Y0368
Y0358
Y0348
Y0338
Y0328
Y0318
M30
