G04*
G04 #@! TF.GenerationSoftware,Altium Limited,Altium Designer,18.0.7 (293)*
G04*
G04 Layer_Color=65535*
%FSLAX25Y25*%
%MOIN*%
G70*
G01*
G75*
%ADD10C,0.01000*%
D10*
X342500Y214500D02*
Y234500D01*
X382500D01*
Y214500D02*
Y234500D01*
X342500Y214500D02*
X382500D01*
X342500Y237000D02*
Y257000D01*
X382500D01*
Y237000D02*
Y257000D01*
X342500Y237000D02*
X382500D01*
X281500Y214500D02*
Y234500D01*
X321500D01*
Y214500D02*
Y234500D01*
X281500Y214500D02*
X321500D01*
X174500Y214000D02*
Y234000D01*
X214500D01*
Y214000D02*
Y234000D01*
X174500Y214000D02*
X214500D01*
X360500Y272000D02*
X372500D01*
Y423500D01*
X361000D02*
X372500D01*
X360500Y423000D02*
X361000Y423500D01*
X360500Y272000D02*
Y423000D01*
X340500Y272000D02*
X352500D01*
Y423500D01*
X341000D02*
X352500D01*
X340500Y423000D02*
X341000Y423500D01*
X340500Y272000D02*
Y423000D01*
X320500Y272000D02*
X332500D01*
Y423500D01*
X321000D02*
X332500D01*
X320500Y423000D02*
X321000Y423500D01*
X320500Y272000D02*
Y423000D01*
X220500Y272000D02*
X232500D01*
Y423500D01*
X221000D02*
X232500D01*
X220500Y423000D02*
X221000Y423500D01*
X220500Y272000D02*
Y423000D01*
X200500Y272000D02*
X212500D01*
Y423500D01*
X201000D02*
X212500D01*
X200500Y423000D02*
X201000Y423500D01*
X200500Y272000D02*
Y423000D01*
X180500Y272000D02*
X192500D01*
Y423500D01*
X181000D02*
X192500D01*
X180500Y423000D02*
X181000Y423500D01*
X180500Y272000D02*
Y423000D01*
X239000Y214500D02*
X279000D01*
Y234500D01*
X239000D02*
X279000D01*
X239000Y214500D02*
Y234500D01*
X174500Y237000D02*
X214500D01*
Y257000D01*
X174500D02*
X214500D01*
X174500Y237000D02*
Y257000D01*
X244499Y360461D02*
Y366459D01*
X241500D01*
X240500Y365460D01*
Y363460D01*
X241500Y362461D01*
X244499D01*
X250497Y360461D02*
Y366459D01*
X247498D01*
X246498Y365460D01*
Y363460D01*
X247498Y362461D01*
X250497D01*
X258494Y363460D02*
X259494Y362461D01*
X261493D01*
X262493Y363460D01*
Y367459D01*
X261493Y368459D01*
X259494D01*
X258494Y367459D01*
Y366459D01*
X259494Y365460D01*
X262493D01*
X264492Y368459D02*
X268491D01*
Y367459D01*
X264492Y363460D01*
Y362461D01*
X270490Y367459D02*
X271490Y368459D01*
X273489D01*
X274489Y367459D01*
Y366459D01*
X273489Y365460D01*
X274489Y364460D01*
Y363460D01*
X273489Y362461D01*
X271490D01*
X270490Y363460D01*
Y364460D01*
X271490Y365460D01*
X270490Y366459D01*
Y367459D01*
X271490Y365460D02*
X273489D01*
X276488Y367459D02*
X277488Y368459D01*
X279487D01*
X280487Y367459D01*
Y363460D01*
X279487Y362461D01*
X277488D01*
X276488Y363460D01*
Y367459D01*
X286485Y362461D02*
X282486D01*
X286485Y366459D01*
Y367459D01*
X285485Y368459D01*
X283486D01*
X282486Y367459D01*
X288485D02*
X289484Y368459D01*
X291483D01*
X292483Y367459D01*
Y363460D01*
X291483Y362461D01*
X289484D01*
X288485Y363460D01*
Y367459D01*
X298481Y368459D02*
X296482Y367459D01*
X294482Y365460D01*
Y363460D01*
X295482Y362461D01*
X297482D01*
X298481Y363460D01*
Y364460D01*
X297482Y365460D01*
X294482D01*
X300481Y367459D02*
X301480Y368459D01*
X303480D01*
X304479Y367459D01*
Y363460D01*
X303480Y362461D01*
X301480D01*
X300481Y363460D01*
Y367459D01*
X306479Y368459D02*
X310477D01*
Y367459D01*
X306479Y363460D01*
Y362461D01*
X249997Y347264D02*
Y341266D01*
X252996D01*
X253996Y342266D01*
Y343265D01*
Y344265D01*
X252996Y345265D01*
X249997D01*
X255995D02*
Y342266D01*
X256995Y341266D01*
X259994D01*
Y340266D01*
X258994Y339267D01*
X257994D01*
X259994Y341266D02*
Y345265D01*
X267991Y347264D02*
Y341266D01*
X270990D01*
X271990Y342266D01*
Y343265D01*
X270990Y344265D01*
X267991D01*
X270990D01*
X271990Y345265D01*
Y346264D01*
X270990Y347264D01*
X267991D01*
X273989D02*
Y342266D01*
X274989Y341266D01*
X276988D01*
X277988Y342266D01*
Y347264D01*
X279987Y341266D02*
Y345265D01*
X281987Y347264D01*
X283986Y345265D01*
Y341266D01*
Y344265D01*
X279987D01*
X285985Y341266D02*
Y345265D01*
X287985Y347264D01*
X289984Y345265D01*
Y341266D01*
Y344265D01*
X285985D01*
X294982Y341266D02*
X292983D01*
X291983Y342266D01*
Y344265D01*
X292983Y345265D01*
X294982D01*
X295982Y344265D01*
Y343265D01*
X291983D01*
X297981Y345265D02*
Y341266D01*
Y343265D01*
X298981Y344265D01*
X299981Y345265D01*
X300980D01*
X343000Y260500D02*
Y266498D01*
X345999D01*
X346999Y265498D01*
Y263499D01*
X345999Y262499D01*
X343000D01*
X348998Y260500D02*
X350997D01*
X349998D01*
Y266498D01*
X348998Y265498D01*
X353996Y260500D02*
X355996D01*
X354996D01*
Y266498D01*
X353996Y265498D01*
X239500Y238000D02*
Y243998D01*
X242499D01*
X243499Y242998D01*
Y240999D01*
X242499Y239999D01*
X239500D01*
X245498Y238000D02*
X247497D01*
X246498D01*
Y243998D01*
X245498Y242998D01*
X250496D02*
X251496Y243998D01*
X253496D01*
X254495Y242998D01*
Y239000D01*
X253496Y238000D01*
X251496D01*
X250496Y239000D01*
Y242998D01*
X175000Y260500D02*
Y266498D01*
X177999D01*
X178999Y265498D01*
Y263499D01*
X177999Y262499D01*
X175000D01*
X180998Y261500D02*
X181998Y260500D01*
X183997D01*
X184997Y261500D01*
Y265498D01*
X183997Y266498D01*
X181998D01*
X180998Y265498D01*
Y264499D01*
X181998Y263499D01*
X184997D01*
X361000Y427000D02*
Y432998D01*
X363999D01*
X364999Y431998D01*
Y429999D01*
X363999Y428999D01*
X361000D01*
X370997Y432998D02*
X368997Y431998D01*
X366998Y429999D01*
Y428000D01*
X367998Y427000D01*
X369997D01*
X370997Y428000D01*
Y428999D01*
X369997Y429999D01*
X366998D01*
X341000Y427000D02*
Y432998D01*
X343999D01*
X344999Y431998D01*
Y429999D01*
X343999Y428999D01*
X341000D01*
X350997Y432998D02*
X346998D01*
Y429999D01*
X348997Y430999D01*
X349997D01*
X350997Y429999D01*
Y428000D01*
X349997Y427000D01*
X347998D01*
X346998Y428000D01*
X321000Y427000D02*
Y432998D01*
X323999D01*
X324999Y431998D01*
Y429999D01*
X323999Y428999D01*
X321000D01*
X329997Y427000D02*
Y432998D01*
X326998Y429999D01*
X330997D01*
X221000Y427000D02*
Y432998D01*
X223999D01*
X224999Y431998D01*
Y429999D01*
X223999Y428999D01*
X221000D01*
X226998Y431998D02*
X227998Y432998D01*
X229997D01*
X230997Y431998D01*
Y430999D01*
X229997Y429999D01*
X228997D01*
X229997D01*
X230997Y428999D01*
Y428000D01*
X229997Y427000D01*
X227998D01*
X226998Y428000D01*
X201000Y427000D02*
Y432998D01*
X203999D01*
X204999Y431998D01*
Y429999D01*
X203999Y428999D01*
X201000D01*
X210997Y427000D02*
X206998D01*
X210997Y430999D01*
Y431998D01*
X209997Y432998D01*
X207998D01*
X206998Y431998D01*
X181000Y427000D02*
Y432998D01*
X183999D01*
X184999Y431998D01*
Y429999D01*
X183999Y428999D01*
X181000D01*
X186998Y427000D02*
X188997D01*
X187998D01*
Y432998D01*
X186998Y431998D01*
M02*
