G04*
G04 #@! TF.GenerationSoftware,Altium Limited,Altium Designer,20.0.9 (164)*
G04*
G04 Layer_Color=65535*
%FSLAX25Y25*%
%MOIN*%
G70*
G01*
G75*
%ADD10C,0.01000*%
D10*
X540000Y390000D02*
G03*
X530000Y400000I-10000J0D01*
G01*
X440000D02*
G03*
X430000Y390000I0J-10000D01*
G01*
X530000Y240000D02*
G03*
X540000Y250000I0J10000D01*
G01*
X430000D02*
G03*
X440000Y240000I10000J0D01*
G01*
X430000Y270000D02*
X540000Y270000D01*
X440000Y400000D02*
X530000D01*
X540000Y250000D02*
X540000Y390000D01*
X440000Y240000D02*
X530000D01*
X430000Y250000D02*
Y390000D01*
X525000Y195000D02*
Y215000D01*
Y195000D02*
X565000D01*
Y215000D01*
X525000D02*
X565000D01*
X465000Y195000D02*
Y215000D01*
Y195000D02*
X505000D01*
Y215000D01*
X465000D02*
X505000D01*
X405000Y195000D02*
Y215000D01*
Y195000D02*
X445000D01*
Y215000D01*
X405000D02*
X445000D01*
X491378Y258878D02*
Y254879D01*
X489379Y252880D01*
X487379Y254879D01*
Y258878D01*
Y255879D01*
X491378D01*
X485380Y258878D02*
Y252880D01*
X481381Y258878D01*
Y252880D01*
X479382D02*
X475383D01*
X477383D01*
Y258878D01*
X471599Y221398D02*
X470599Y222398D01*
X468600D01*
X467600Y221398D01*
Y217400D01*
X468600Y216400D01*
X470599D01*
X471599Y217400D01*
Y219399D01*
X469599D01*
X473598Y216400D02*
Y222398D01*
X477597Y216400D01*
Y222398D01*
X479596D02*
Y216400D01*
X482595D01*
X483595Y217400D01*
Y221398D01*
X482595Y222398D01*
X479596D01*
X527600Y219399D02*
X531599D01*
X529599Y221398D02*
Y217400D01*
X533598Y221398D02*
X534598Y222398D01*
X536597D01*
X537597Y221398D01*
Y220399D01*
X536597Y219399D01*
X535597D01*
X536597D01*
X537597Y218399D01*
Y217400D01*
X536597Y216400D01*
X534598D01*
X533598Y217400D01*
X539596Y222398D02*
Y218399D01*
X541596Y216400D01*
X543595Y218399D01*
Y222398D01*
X545594Y221398D02*
X546594Y222398D01*
X548593D01*
X549593Y221398D01*
Y220399D01*
X548593Y219399D01*
X547593D01*
X548593D01*
X549593Y218399D01*
Y217400D01*
X548593Y216400D01*
X546594D01*
X545594Y217400D01*
X407600Y219399D02*
X411599D01*
X409599Y221398D02*
Y217400D01*
X417597Y222398D02*
X413598D01*
Y219399D01*
X415597Y220399D01*
X416597D01*
X417597Y219399D01*
Y217400D01*
X416597Y216400D01*
X414598D01*
X413598Y217400D01*
X419596Y222398D02*
Y218399D01*
X421595Y216400D01*
X423595Y218399D01*
Y222398D01*
M02*
