M48
;Layer_Color=9474304
;FILE_FORMAT=2:5
INCH,LZ
;TYPE=PLATED
T2F00S00C0.05118
%
T02
X047Y02
X048Y02
Y021
X049
Y02
X05
Y021
X053Y021
X054
Y02
X055Y02
X056
Y021
X055Y021
X053Y02
X047Y021
X044Y021
Y02
X043
Y021
X042
Y02
X041Y02
X041Y021
X0400992Y0320298
X0400992Y0330298
X0400992Y0340298
Y0350298
Y0360298
Y0370298
Y0380298
Y0390298
X0420992
Y0380298
Y0370298
Y0360298
Y0350298
Y0340298
Y0330298
X0420992Y0320298
X044Y032
Y033
Y034
Y035
Y036
Y037
Y038
Y039
X053
Y038
Y037
Y036
Y035
Y034
Y033
Y032
X0550992Y0320298
Y0330298
Y0340298
Y0350298
X0550992Y0360298
X0550992Y0370298
Y0380298
Y0390298
X0570992Y0390298
Y0380298
Y0370298
Y0360298
X0570992Y0350298
X0570992Y0340298
Y0330298
Y0320298
M30
