G04*
G04 #@! TF.GenerationSoftware,Altium Limited,Altium Designer,20.0.9 (164)*
G04*
G04 Layer_Physical_Order=2*
G04 Layer_Color=16711680*
%FSLAX25Y25*%
%MOIN*%
G70*
G01*
G75*
%ADD18C,0.06000*%
%ADD19O,0.07087X0.04331*%
G36*
X580000Y190000D02*
X390000D01*
Y405000D01*
X580000D01*
Y190000D01*
D02*
G37*
%LPC*%
G36*
X570992Y394131D02*
X570000Y394000D01*
X569076Y393617D01*
X568282Y393008D01*
X567673Y392214D01*
X567290Y391290D01*
X567159Y390298D01*
X567290Y389306D01*
X567673Y388381D01*
X568282Y387588D01*
X569076Y386979D01*
X570000Y386596D01*
X570992Y386465D01*
X571984Y386596D01*
X572908Y386979D01*
X573702Y387588D01*
X574311Y388381D01*
X574694Y389306D01*
X574825Y390298D01*
X574694Y391290D01*
X574311Y392214D01*
X573702Y393008D01*
X572908Y393617D01*
X571984Y394000D01*
X570992Y394131D01*
D02*
G37*
G36*
X550992Y394131D02*
X550000Y394000D01*
X549076Y393617D01*
X548282Y393008D01*
X547673Y392214D01*
X547290Y391290D01*
X547159Y390298D01*
X547290Y389306D01*
X547673Y388381D01*
X548282Y387588D01*
X549076Y386979D01*
X550000Y386596D01*
X550992Y386465D01*
X551984Y386596D01*
X552908Y386979D01*
X553702Y387588D01*
X554311Y388381D01*
X554694Y389306D01*
X554825Y390298D01*
X554694Y391290D01*
X554311Y392214D01*
X553702Y393008D01*
X552908Y393617D01*
X551984Y394000D01*
X550992Y394131D01*
D02*
G37*
G36*
X420992D02*
X420000Y394000D01*
X419076Y393617D01*
X418282Y393008D01*
X417673Y392214D01*
X417290Y391290D01*
X417159Y390298D01*
X417290Y389306D01*
X417673Y388381D01*
X418282Y387588D01*
X419076Y386979D01*
X420000Y386596D01*
X420992Y386465D01*
X421984Y386596D01*
X422908Y386979D01*
X423702Y387588D01*
X424311Y388381D01*
X424694Y389306D01*
X424825Y390298D01*
X424694Y391290D01*
X424311Y392214D01*
X423702Y393008D01*
X422908Y393617D01*
X421984Y394000D01*
X420992Y394131D01*
D02*
G37*
G36*
X400992D02*
X400000Y394000D01*
X399076Y393617D01*
X398282Y393008D01*
X397673Y392214D01*
X397290Y391290D01*
X397159Y390298D01*
X397290Y389306D01*
X397673Y388381D01*
X398282Y387588D01*
X399076Y386979D01*
X400000Y386596D01*
X400992Y386465D01*
X401984Y386596D01*
X402908Y386979D01*
X403702Y387588D01*
X404311Y388381D01*
X404694Y389306D01*
X404825Y390298D01*
X404694Y391290D01*
X404311Y392214D01*
X403702Y393008D01*
X402908Y393617D01*
X401984Y394000D01*
X400992Y394131D01*
D02*
G37*
G36*
X530000Y393833D02*
X529008Y393702D01*
X528084Y393319D01*
X527290Y392710D01*
X526681Y391916D01*
X526298Y390992D01*
X526167Y390000D01*
X526298Y389008D01*
X526681Y388084D01*
X527290Y387290D01*
X528084Y386681D01*
X529008Y386298D01*
X530000Y386167D01*
X530992Y386298D01*
X531916Y386681D01*
X532710Y387290D01*
X533319Y388084D01*
X533702Y389008D01*
X533833Y390000D01*
X533702Y390992D01*
X533319Y391916D01*
X532710Y392710D01*
X531916Y393319D01*
X530992Y393702D01*
X530000Y393833D01*
D02*
G37*
G36*
X440000D02*
X439008Y393702D01*
X438084Y393319D01*
X437290Y392710D01*
X436681Y391916D01*
X436298Y390992D01*
X436167Y390000D01*
X436298Y389008D01*
X436681Y388084D01*
X437290Y387290D01*
X438084Y386681D01*
X439008Y386298D01*
X440000Y386167D01*
X440992Y386298D01*
X441916Y386681D01*
X442710Y387290D01*
X443319Y388084D01*
X443702Y389008D01*
X443833Y390000D01*
X443702Y390992D01*
X443319Y391916D01*
X442710Y392710D01*
X441916Y393319D01*
X440992Y393702D01*
X440000Y393833D01*
D02*
G37*
G36*
X421492Y384266D02*
Y380798D01*
X424961D01*
X424889Y381342D01*
X424486Y382315D01*
X423845Y383151D01*
X423009Y383792D01*
X422036Y384195D01*
X421492Y384266D01*
D02*
G37*
G36*
X401492D02*
Y380798D01*
X404961D01*
X404889Y381342D01*
X404486Y382315D01*
X403845Y383151D01*
X403009Y383792D01*
X402036Y384195D01*
X401492Y384266D01*
D02*
G37*
G36*
X420492Y384266D02*
X419948Y384195D01*
X418975Y383792D01*
X418139Y383151D01*
X417498Y382315D01*
X417095Y381342D01*
X417023Y380798D01*
X420492D01*
Y384266D01*
D02*
G37*
G36*
X400492D02*
X399948Y384195D01*
X398975Y383792D01*
X398139Y383151D01*
X397498Y382315D01*
X397095Y381342D01*
X397023Y380798D01*
X400492D01*
Y384266D01*
D02*
G37*
G36*
X440500Y383969D02*
Y380500D01*
X443969D01*
X443897Y381044D01*
X443494Y382017D01*
X442853Y382853D01*
X442017Y383494D01*
X441044Y383897D01*
X440500Y383969D01*
D02*
G37*
G36*
X439500Y383969D02*
X438956Y383897D01*
X437983Y383494D01*
X437147Y382853D01*
X436506Y382017D01*
X436103Y381044D01*
X436031Y380500D01*
X439500D01*
Y383969D01*
D02*
G37*
G36*
X420992Y380298D02*
D01*
D01*
D01*
D02*
G37*
G36*
X570992Y384131D02*
X570000Y384000D01*
X569076Y383617D01*
X568282Y383008D01*
X567673Y382214D01*
X567290Y381290D01*
X567159Y380298D01*
X567290Y379306D01*
X567673Y378381D01*
X568282Y377588D01*
X569076Y376978D01*
X570000Y376596D01*
X570992Y376465D01*
X571984Y376596D01*
X572908Y376978D01*
X573702Y377588D01*
X574311Y378381D01*
X574694Y379306D01*
X574825Y380298D01*
X574694Y381290D01*
X574311Y382214D01*
X573702Y383008D01*
X572908Y383617D01*
X571984Y384000D01*
X570992Y384131D01*
D02*
G37*
G36*
X550992Y384131D02*
X550000Y384000D01*
X549076Y383617D01*
X548282Y383008D01*
X547673Y382214D01*
X547290Y381290D01*
X547159Y380298D01*
X547290Y379306D01*
X547673Y378381D01*
X548282Y377588D01*
X549076Y376978D01*
X550000Y376596D01*
X550992Y376465D01*
X551984Y376596D01*
X552908Y376978D01*
X553702Y377588D01*
X554311Y378381D01*
X554694Y379306D01*
X554825Y380298D01*
X554694Y381290D01*
X554311Y382214D01*
X553702Y383008D01*
X552908Y383617D01*
X551984Y384000D01*
X550992Y384131D01*
D02*
G37*
G36*
X424961Y379798D02*
X421492D01*
Y376329D01*
X422036Y376401D01*
X423009Y376804D01*
X423845Y377445D01*
X424486Y378280D01*
X424889Y379254D01*
X424961Y379798D01*
D02*
G37*
G36*
X404961D02*
X401492D01*
Y376329D01*
X402036Y376401D01*
X403009Y376804D01*
X403845Y377445D01*
X404486Y378280D01*
X404889Y379254D01*
X404961Y379798D01*
D02*
G37*
G36*
X420492D02*
X417023D01*
X417095Y379254D01*
X417498Y378280D01*
X418139Y377445D01*
X418975Y376804D01*
X419948Y376401D01*
X420492Y376329D01*
Y379798D01*
D02*
G37*
G36*
X400492D02*
X397023D01*
X397095Y379254D01*
X397498Y378280D01*
X398139Y377445D01*
X398975Y376804D01*
X399948Y376401D01*
X400492Y376329D01*
Y379798D01*
D02*
G37*
G36*
X530000Y383833D02*
X529008Y383702D01*
X528084Y383319D01*
X527290Y382710D01*
X526681Y381916D01*
X526298Y380992D01*
X526167Y380000D01*
X526298Y379008D01*
X526681Y378084D01*
X527290Y377290D01*
X528084Y376681D01*
X529008Y376298D01*
X530000Y376167D01*
X530992Y376298D01*
X531916Y376681D01*
X532710Y377290D01*
X533319Y378084D01*
X533702Y379008D01*
X533833Y380000D01*
X533702Y380992D01*
X533319Y381916D01*
X532710Y382710D01*
X531916Y383319D01*
X530992Y383702D01*
X530000Y383833D01*
D02*
G37*
G36*
X439500Y379500D02*
X436031D01*
X436103Y378956D01*
X436506Y377983D01*
X437147Y377147D01*
X437983Y376506D01*
X438956Y376103D01*
X439500Y376031D01*
Y379500D01*
D02*
G37*
G36*
X443969D02*
X440500D01*
Y376031D01*
X441044Y376103D01*
X442017Y376506D01*
X442853Y377147D01*
X443494Y377983D01*
X443897Y378956D01*
X443969Y379500D01*
D02*
G37*
G36*
X550992Y374131D02*
X550000Y374000D01*
X549076Y373617D01*
X548282Y373008D01*
X547673Y372214D01*
X547290Y371290D01*
X547159Y370298D01*
X547290Y369306D01*
X547673Y368381D01*
X548282Y367588D01*
X549076Y366979D01*
X550000Y366596D01*
X550992Y366465D01*
X551984Y366596D01*
X552908Y366979D01*
X553702Y367588D01*
X554311Y368381D01*
X554694Y369306D01*
X554825Y370298D01*
X554694Y371290D01*
X554311Y372214D01*
X553702Y373008D01*
X552908Y373617D01*
X551984Y374000D01*
X550992Y374131D01*
D02*
G37*
G36*
X570992Y374131D02*
X570000Y374000D01*
X569076Y373617D01*
X568282Y373008D01*
X567673Y372214D01*
X567290Y371290D01*
X567159Y370298D01*
X567290Y369306D01*
X567673Y368381D01*
X568282Y367588D01*
X569076Y366979D01*
X570000Y366596D01*
X570992Y366465D01*
X571984Y366596D01*
X572908Y366979D01*
X573702Y367588D01*
X574311Y368381D01*
X574694Y369306D01*
X574825Y370298D01*
X574694Y371290D01*
X574311Y372214D01*
X573702Y373008D01*
X572908Y373617D01*
X571984Y374000D01*
X570992Y374131D01*
D02*
G37*
G36*
X420992D02*
X420000Y374000D01*
X419076Y373617D01*
X418282Y373008D01*
X417673Y372214D01*
X417290Y371290D01*
X417159Y370298D01*
X417290Y369306D01*
X417673Y368381D01*
X418282Y367588D01*
X419076Y366979D01*
X420000Y366596D01*
X420992Y366465D01*
X421984Y366596D01*
X422908Y366979D01*
X423702Y367588D01*
X424311Y368381D01*
X424694Y369306D01*
X424825Y370298D01*
X424694Y371290D01*
X424311Y372214D01*
X423702Y373008D01*
X422908Y373617D01*
X421984Y374000D01*
X420992Y374131D01*
D02*
G37*
G36*
X400992D02*
X400000Y374000D01*
X399076Y373617D01*
X398282Y373008D01*
X397673Y372214D01*
X397290Y371290D01*
X397159Y370298D01*
X397290Y369306D01*
X397673Y368381D01*
X398282Y367588D01*
X399076Y366979D01*
X400000Y366596D01*
X400992Y366465D01*
X401984Y366596D01*
X402908Y366979D01*
X403702Y367588D01*
X404311Y368381D01*
X404694Y369306D01*
X404825Y370298D01*
X404694Y371290D01*
X404311Y372214D01*
X403702Y373008D01*
X402908Y373617D01*
X401984Y374000D01*
X400992Y374131D01*
D02*
G37*
G36*
X530000Y373833D02*
X529008Y373702D01*
X528084Y373319D01*
X527290Y372710D01*
X526681Y371916D01*
X526298Y370992D01*
X526167Y370000D01*
X526298Y369008D01*
X526681Y368084D01*
X527290Y367290D01*
X528084Y366681D01*
X529008Y366298D01*
X530000Y366167D01*
X530992Y366298D01*
X531916Y366681D01*
X532710Y367290D01*
X533319Y368084D01*
X533702Y369008D01*
X533833Y370000D01*
X533702Y370992D01*
X533319Y371916D01*
X532710Y372710D01*
X531916Y373319D01*
X530992Y373702D01*
X530000Y373833D01*
D02*
G37*
G36*
X440000D02*
X439008Y373702D01*
X438084Y373319D01*
X437290Y372710D01*
X436681Y371916D01*
X436298Y370992D01*
X436167Y370000D01*
X436298Y369008D01*
X436681Y368084D01*
X437290Y367290D01*
X438084Y366681D01*
X439008Y366298D01*
X440000Y366167D01*
X440992Y366298D01*
X441916Y366681D01*
X442710Y367290D01*
X443319Y368084D01*
X443702Y369008D01*
X443833Y370000D01*
X443702Y370992D01*
X443319Y371916D01*
X442710Y372710D01*
X441916Y373319D01*
X440992Y373702D01*
X440000Y373833D01*
D02*
G37*
G36*
X571492Y364266D02*
Y360798D01*
X574961D01*
X574889Y361342D01*
X574486Y362315D01*
X573845Y363151D01*
X573009Y363792D01*
X572036Y364195D01*
X571492Y364266D01*
D02*
G37*
G36*
X570492Y364266D02*
X569948Y364195D01*
X568975Y363792D01*
X568139Y363151D01*
X567498Y362315D01*
X567095Y361342D01*
X567023Y360798D01*
X570492D01*
Y364266D01*
D02*
G37*
G36*
X551492Y364266D02*
Y360798D01*
X554961D01*
X554889Y361342D01*
X554486Y362315D01*
X553845Y363151D01*
X553009Y363792D01*
X552036Y364195D01*
X551492Y364266D01*
D02*
G37*
G36*
X550492D02*
X549948Y364195D01*
X548975Y363792D01*
X548139Y363151D01*
X547498Y362315D01*
X547095Y361342D01*
X547023Y360798D01*
X550492D01*
Y364266D01*
D02*
G37*
G36*
X530500Y363969D02*
Y360500D01*
X533969D01*
X533897Y361044D01*
X533494Y362017D01*
X532853Y362853D01*
X532017Y363494D01*
X531044Y363897D01*
X530500Y363969D01*
D02*
G37*
G36*
X529500Y363969D02*
X528956Y363897D01*
X527983Y363494D01*
X527147Y362853D01*
X526506Y362017D01*
X526103Y361044D01*
X526031Y360500D01*
X529500D01*
Y363969D01*
D02*
G37*
G36*
X420992Y364131D02*
X420000Y364000D01*
X419076Y363617D01*
X418282Y363008D01*
X417673Y362214D01*
X417290Y361290D01*
X417159Y360298D01*
X417290Y359306D01*
X417673Y358381D01*
X418282Y357588D01*
X419076Y356979D01*
X420000Y356596D01*
X420992Y356465D01*
X421984Y356596D01*
X422908Y356979D01*
X423702Y357588D01*
X424311Y358381D01*
X424694Y359306D01*
X424825Y360298D01*
X424694Y361290D01*
X424311Y362214D01*
X423702Y363008D01*
X422908Y363617D01*
X421984Y364000D01*
X420992Y364131D01*
D02*
G37*
G36*
X400992D02*
X400000Y364000D01*
X399076Y363617D01*
X398282Y363008D01*
X397673Y362214D01*
X397290Y361290D01*
X397159Y360298D01*
X397290Y359306D01*
X397673Y358381D01*
X398282Y357588D01*
X399076Y356979D01*
X400000Y356596D01*
X400992Y356465D01*
X401984Y356596D01*
X402908Y356979D01*
X403702Y357588D01*
X404311Y358381D01*
X404694Y359306D01*
X404825Y360298D01*
X404694Y361290D01*
X404311Y362214D01*
X403702Y363008D01*
X402908Y363617D01*
X401984Y364000D01*
X400992Y364131D01*
D02*
G37*
G36*
X570492Y359798D02*
X567023D01*
X567095Y359254D01*
X567498Y358280D01*
X568139Y357445D01*
X568975Y356804D01*
X569948Y356401D01*
X570492Y356329D01*
Y359798D01*
D02*
G37*
G36*
X554961Y359798D02*
X551492D01*
Y356329D01*
X552036Y356401D01*
X553009Y356804D01*
X553845Y357445D01*
X554486Y358280D01*
X554889Y359254D01*
X554961Y359798D01*
D02*
G37*
G36*
X550492D02*
X547023D01*
X547095Y359254D01*
X547498Y358280D01*
X548139Y357445D01*
X548975Y356804D01*
X549948Y356401D01*
X550492Y356329D01*
Y359798D01*
D02*
G37*
G36*
X574961Y359798D02*
X571492D01*
Y356329D01*
X572036Y356401D01*
X573009Y356804D01*
X573845Y357445D01*
X574486Y358280D01*
X574889Y359254D01*
X574961Y359798D01*
D02*
G37*
G36*
X440000Y363833D02*
X439008Y363702D01*
X438084Y363319D01*
X437290Y362710D01*
X436681Y361916D01*
X436298Y360992D01*
X436167Y360000D01*
X436298Y359008D01*
X436681Y358084D01*
X437290Y357290D01*
X438084Y356681D01*
X439008Y356298D01*
X440000Y356167D01*
X440992Y356298D01*
X441916Y356681D01*
X442710Y357290D01*
X443319Y358084D01*
X443702Y359008D01*
X443833Y360000D01*
X443702Y360992D01*
X443319Y361916D01*
X442710Y362710D01*
X441916Y363319D01*
X440992Y363702D01*
X440000Y363833D01*
D02*
G37*
G36*
X529500Y359500D02*
X526031D01*
X526103Y358956D01*
X526506Y357983D01*
X527147Y357147D01*
X527983Y356506D01*
X528956Y356103D01*
X529500Y356031D01*
Y359500D01*
D02*
G37*
G36*
X533969D02*
X530500D01*
Y356031D01*
X531044Y356103D01*
X532017Y356506D01*
X532853Y357147D01*
X533494Y357983D01*
X533897Y358956D01*
X533969Y359500D01*
D02*
G37*
G36*
X550992Y354131D02*
X550000Y354000D01*
X549076Y353617D01*
X548282Y353008D01*
X547673Y352214D01*
X547290Y351290D01*
X547159Y350298D01*
X547290Y349306D01*
X547673Y348381D01*
X548282Y347588D01*
X549076Y346978D01*
X550000Y346596D01*
X550992Y346465D01*
X551984Y346596D01*
X552908Y346978D01*
X553702Y347588D01*
X554311Y348381D01*
X554694Y349306D01*
X554825Y350298D01*
X554694Y351290D01*
X554311Y352214D01*
X553702Y353008D01*
X552908Y353617D01*
X551984Y354000D01*
X550992Y354131D01*
D02*
G37*
G36*
X420992D02*
X420000Y354000D01*
X419076Y353617D01*
X418282Y353008D01*
X417673Y352214D01*
X417290Y351290D01*
X417159Y350298D01*
X417290Y349306D01*
X417673Y348381D01*
X418282Y347588D01*
X419076Y346978D01*
X420000Y346596D01*
X420992Y346465D01*
X421984Y346596D01*
X422908Y346978D01*
X423702Y347588D01*
X424311Y348381D01*
X424694Y349306D01*
X424825Y350298D01*
X424694Y351290D01*
X424311Y352214D01*
X423702Y353008D01*
X422908Y353617D01*
X421984Y354000D01*
X420992Y354131D01*
D02*
G37*
G36*
X400992D02*
X400000Y354000D01*
X399076Y353617D01*
X398282Y353008D01*
X397673Y352214D01*
X397290Y351290D01*
X397159Y350298D01*
X397290Y349306D01*
X397673Y348381D01*
X398282Y347588D01*
X399076Y346978D01*
X400000Y346596D01*
X400992Y346465D01*
X401984Y346596D01*
X402908Y346978D01*
X403702Y347588D01*
X404311Y348381D01*
X404694Y349306D01*
X404825Y350298D01*
X404694Y351290D01*
X404311Y352214D01*
X403702Y353008D01*
X402908Y353617D01*
X401984Y354000D01*
X400992Y354131D01*
D02*
G37*
G36*
X570992Y354131D02*
X570000Y354000D01*
X569076Y353617D01*
X568282Y353008D01*
X567673Y352214D01*
X567290Y351290D01*
X567159Y350298D01*
X567290Y349306D01*
X567673Y348381D01*
X568282Y347588D01*
X569076Y346978D01*
X570000Y346596D01*
X570992Y346465D01*
X571984Y346596D01*
X572908Y346978D01*
X573702Y347588D01*
X574311Y348381D01*
X574694Y349306D01*
X574825Y350298D01*
X574694Y351290D01*
X574311Y352214D01*
X573702Y353008D01*
X572908Y353617D01*
X571984Y354000D01*
X570992Y354131D01*
D02*
G37*
G36*
X530000Y353833D02*
X529008Y353702D01*
X528084Y353319D01*
X527290Y352710D01*
X526681Y351916D01*
X526298Y350992D01*
X526167Y350000D01*
X526298Y349008D01*
X526681Y348084D01*
X527290Y347290D01*
X528084Y346681D01*
X529008Y346298D01*
X530000Y346167D01*
X530992Y346298D01*
X531916Y346681D01*
X532710Y347290D01*
X533319Y348084D01*
X533702Y349008D01*
X533833Y350000D01*
X533702Y350992D01*
X533319Y351916D01*
X532710Y352710D01*
X531916Y353319D01*
X530992Y353702D01*
X530000Y353833D01*
D02*
G37*
G36*
X440000D02*
X439008Y353702D01*
X438084Y353319D01*
X437290Y352710D01*
X436681Y351916D01*
X436298Y350992D01*
X436167Y350000D01*
X436298Y349008D01*
X436681Y348084D01*
X437290Y347290D01*
X438084Y346681D01*
X439008Y346298D01*
X440000Y346167D01*
X440992Y346298D01*
X441916Y346681D01*
X442710Y347290D01*
X443319Y348084D01*
X443702Y349008D01*
X443833Y350000D01*
X443702Y350992D01*
X443319Y351916D01*
X442710Y352710D01*
X441916Y353319D01*
X440992Y353702D01*
X440000Y353833D01*
D02*
G37*
G36*
X550992Y344131D02*
X550000Y344000D01*
X549076Y343617D01*
X548282Y343008D01*
X547673Y342214D01*
X547290Y341290D01*
X547159Y340298D01*
X547290Y339306D01*
X547673Y338381D01*
X548282Y337588D01*
X549076Y336979D01*
X550000Y336596D01*
X550992Y336465D01*
X551984Y336596D01*
X552908Y336979D01*
X553702Y337588D01*
X554311Y338381D01*
X554694Y339306D01*
X554825Y340298D01*
X554694Y341290D01*
X554311Y342214D01*
X553702Y343008D01*
X552908Y343617D01*
X551984Y344000D01*
X550992Y344131D01*
D02*
G37*
G36*
X420992D02*
X420000Y344000D01*
X419076Y343617D01*
X418282Y343008D01*
X417673Y342214D01*
X417290Y341290D01*
X417159Y340298D01*
X417290Y339306D01*
X417673Y338381D01*
X418282Y337588D01*
X419076Y336979D01*
X420000Y336596D01*
X420992Y336465D01*
X421984Y336596D01*
X422908Y336979D01*
X423702Y337588D01*
X424311Y338381D01*
X424694Y339306D01*
X424825Y340298D01*
X424694Y341290D01*
X424311Y342214D01*
X423702Y343008D01*
X422908Y343617D01*
X421984Y344000D01*
X420992Y344131D01*
D02*
G37*
G36*
X400992D02*
X400000Y344000D01*
X399076Y343617D01*
X398282Y343008D01*
X397673Y342214D01*
X397290Y341290D01*
X397159Y340298D01*
X397290Y339306D01*
X397673Y338381D01*
X398282Y337588D01*
X399076Y336979D01*
X400000Y336596D01*
X400992Y336465D01*
X401984Y336596D01*
X402908Y336979D01*
X403702Y337588D01*
X404311Y338381D01*
X404694Y339306D01*
X404825Y340298D01*
X404694Y341290D01*
X404311Y342214D01*
X403702Y343008D01*
X402908Y343617D01*
X401984Y344000D01*
X400992Y344131D01*
D02*
G37*
G36*
X570992Y344131D02*
X570000Y344000D01*
X569076Y343617D01*
X568282Y343008D01*
X567673Y342214D01*
X567290Y341290D01*
X567159Y340298D01*
X567290Y339306D01*
X567673Y338381D01*
X568282Y337588D01*
X569076Y336979D01*
X570000Y336596D01*
X570992Y336465D01*
X571984Y336596D01*
X572908Y336979D01*
X573702Y337588D01*
X574311Y338381D01*
X574694Y339306D01*
X574825Y340298D01*
X574694Y341290D01*
X574311Y342214D01*
X573702Y343008D01*
X572908Y343617D01*
X571984Y344000D01*
X570992Y344131D01*
D02*
G37*
G36*
X530000Y343833D02*
X529008Y343702D01*
X528084Y343319D01*
X527290Y342710D01*
X526681Y341916D01*
X526298Y340992D01*
X526167Y340000D01*
X526298Y339008D01*
X526681Y338084D01*
X527290Y337290D01*
X528084Y336681D01*
X529008Y336298D01*
X530000Y336167D01*
X530992Y336298D01*
X531916Y336681D01*
X532710Y337290D01*
X533319Y338084D01*
X533702Y339008D01*
X533833Y340000D01*
X533702Y340992D01*
X533319Y341916D01*
X532710Y342710D01*
X531916Y343319D01*
X530992Y343702D01*
X530000Y343833D01*
D02*
G37*
G36*
X440000D02*
X439008Y343702D01*
X438084Y343319D01*
X437290Y342710D01*
X436681Y341916D01*
X436298Y340992D01*
X436167Y340000D01*
X436298Y339008D01*
X436681Y338084D01*
X437290Y337290D01*
X438084Y336681D01*
X439008Y336298D01*
X440000Y336167D01*
X440992Y336298D01*
X441916Y336681D01*
X442710Y337290D01*
X443319Y338084D01*
X443702Y339008D01*
X443833Y340000D01*
X443702Y340992D01*
X443319Y341916D01*
X442710Y342710D01*
X441916Y343319D01*
X440992Y343702D01*
X440000Y343833D01*
D02*
G37*
G36*
X570992Y334131D02*
X570000Y334000D01*
X569076Y333617D01*
X568282Y333008D01*
X567673Y332214D01*
X567290Y331290D01*
X567159Y330298D01*
X567290Y329306D01*
X567673Y328381D01*
X568282Y327588D01*
X569076Y326978D01*
X570000Y326596D01*
X570992Y326465D01*
X571984Y326596D01*
X572908Y326978D01*
X573702Y327588D01*
X574311Y328381D01*
X574694Y329306D01*
X574825Y330298D01*
X574694Y331290D01*
X574311Y332214D01*
X573702Y333008D01*
X572908Y333617D01*
X571984Y334000D01*
X570992Y334131D01*
D02*
G37*
G36*
X420992D02*
X420000Y334000D01*
X419076Y333617D01*
X418282Y333008D01*
X417673Y332214D01*
X417290Y331290D01*
X417159Y330298D01*
X417290Y329306D01*
X417673Y328381D01*
X418282Y327588D01*
X419076Y326978D01*
X420000Y326596D01*
X420992Y326465D01*
X421984Y326596D01*
X422908Y326978D01*
X423702Y327588D01*
X424311Y328381D01*
X424694Y329306D01*
X424825Y330298D01*
X424694Y331290D01*
X424311Y332214D01*
X423702Y333008D01*
X422908Y333617D01*
X421984Y334000D01*
X420992Y334131D01*
D02*
G37*
G36*
X400992Y334131D02*
X400000Y334000D01*
X399076Y333617D01*
X398282Y333008D01*
X397673Y332214D01*
X397290Y331290D01*
X397159Y330298D01*
X397290Y329306D01*
X397673Y328381D01*
X398282Y327588D01*
X399076Y326978D01*
X400000Y326596D01*
X400992Y326465D01*
X401984Y326596D01*
X402908Y326978D01*
X403702Y327588D01*
X404311Y328381D01*
X404694Y329306D01*
X404825Y330298D01*
X404694Y331290D01*
X404311Y332214D01*
X403702Y333008D01*
X402908Y333617D01*
X401984Y334000D01*
X400992Y334131D01*
D02*
G37*
G36*
X550992Y334131D02*
X550000Y334000D01*
X549076Y333617D01*
X548282Y333008D01*
X547673Y332214D01*
X547290Y331290D01*
X547159Y330298D01*
X547290Y329306D01*
X547673Y328381D01*
X548282Y327588D01*
X549076Y326978D01*
X550000Y326596D01*
X550992Y326465D01*
X551984Y326596D01*
X552908Y326978D01*
X553702Y327588D01*
X554311Y328381D01*
X554694Y329306D01*
X554825Y330298D01*
X554694Y331290D01*
X554311Y332214D01*
X553702Y333008D01*
X552908Y333617D01*
X551984Y334000D01*
X550992Y334131D01*
D02*
G37*
G36*
X530000Y333833D02*
X529008Y333702D01*
X528084Y333319D01*
X527290Y332710D01*
X526681Y331916D01*
X526298Y330992D01*
X526167Y330000D01*
X526298Y329008D01*
X526681Y328084D01*
X527290Y327290D01*
X528084Y326681D01*
X529008Y326298D01*
X530000Y326167D01*
X530992Y326298D01*
X531916Y326681D01*
X532710Y327290D01*
X533319Y328084D01*
X533702Y329008D01*
X533833Y330000D01*
X533702Y330992D01*
X533319Y331916D01*
X532710Y332710D01*
X531916Y333319D01*
X530992Y333702D01*
X530000Y333833D01*
D02*
G37*
G36*
X440000D02*
X439008Y333702D01*
X438084Y333319D01*
X437290Y332710D01*
X436681Y331916D01*
X436298Y330992D01*
X436167Y330000D01*
X436298Y329008D01*
X436681Y328084D01*
X437290Y327290D01*
X438084Y326681D01*
X439008Y326298D01*
X440000Y326167D01*
X440992Y326298D01*
X441916Y326681D01*
X442710Y327290D01*
X443319Y328084D01*
X443702Y329008D01*
X443833Y330000D01*
X443702Y330992D01*
X443319Y331916D01*
X442710Y332710D01*
X441916Y333319D01*
X440992Y333702D01*
X440000Y333833D01*
D02*
G37*
G36*
X551492Y324267D02*
Y320798D01*
X554961D01*
X554889Y321342D01*
X554486Y322315D01*
X553845Y323151D01*
X553009Y323792D01*
X552036Y324195D01*
X551492Y324267D01*
D02*
G37*
G36*
X571492Y324267D02*
Y320798D01*
X574961D01*
X574889Y321342D01*
X574486Y322315D01*
X573845Y323151D01*
X573009Y323792D01*
X572036Y324195D01*
X571492Y324267D01*
D02*
G37*
G36*
X550492Y324267D02*
X549948Y324195D01*
X548975Y323792D01*
X548139Y323151D01*
X547498Y322315D01*
X547095Y321342D01*
X547023Y320798D01*
X550492D01*
Y324267D01*
D02*
G37*
G36*
X570492D02*
X569948Y324195D01*
X568975Y323792D01*
X568139Y323151D01*
X567498Y322315D01*
X567095Y321342D01*
X567023Y320798D01*
X570492D01*
Y324267D01*
D02*
G37*
G36*
X530500Y323969D02*
Y320500D01*
X533969D01*
X533897Y321044D01*
X533494Y322017D01*
X532853Y322853D01*
X532017Y323494D01*
X531044Y323897D01*
X530500Y323969D01*
D02*
G37*
G36*
X529500Y323969D02*
X528956Y323897D01*
X527983Y323494D01*
X527147Y322853D01*
X526506Y322017D01*
X526103Y321044D01*
X526031Y320500D01*
X529500D01*
Y323969D01*
D02*
G37*
G36*
X420992Y324131D02*
X420000Y324000D01*
X419076Y323617D01*
X418282Y323008D01*
X417673Y322214D01*
X417290Y321290D01*
X417159Y320298D01*
X417290Y319306D01*
X417673Y318381D01*
X418282Y317588D01*
X419076Y316979D01*
X420000Y316596D01*
X420992Y316465D01*
X421984Y316596D01*
X422908Y316979D01*
X423702Y317588D01*
X424311Y318381D01*
X424694Y319306D01*
X424825Y320298D01*
X424694Y321290D01*
X424311Y322214D01*
X423702Y323008D01*
X422908Y323617D01*
X421984Y324000D01*
X420992Y324131D01*
D02*
G37*
G36*
X400992Y324131D02*
X400000Y324000D01*
X399076Y323617D01*
X398282Y323008D01*
X397673Y322214D01*
X397290Y321290D01*
X397159Y320298D01*
X397290Y319306D01*
X397673Y318381D01*
X398282Y317588D01*
X399076Y316979D01*
X400000Y316596D01*
X400992Y316465D01*
X401984Y316596D01*
X402908Y316979D01*
X403702Y317588D01*
X404311Y318381D01*
X404694Y319306D01*
X404825Y320298D01*
X404694Y321290D01*
X404311Y322214D01*
X403702Y323008D01*
X402908Y323617D01*
X401984Y324000D01*
X400992Y324131D01*
D02*
G37*
G36*
X570492Y319798D02*
X567023D01*
X567095Y319254D01*
X567498Y318281D01*
X568139Y317445D01*
X568975Y316804D01*
X569948Y316401D01*
X570492Y316329D01*
Y319798D01*
D02*
G37*
G36*
X574961D02*
X571492D01*
Y316329D01*
X572036Y316401D01*
X573009Y316804D01*
X573845Y317445D01*
X574486Y318281D01*
X574889Y319254D01*
X574961Y319798D01*
D02*
G37*
G36*
X554961D02*
X551492D01*
Y316329D01*
X552036Y316401D01*
X553009Y316804D01*
X553845Y317445D01*
X554486Y318281D01*
X554889Y319254D01*
X554961Y319798D01*
D02*
G37*
G36*
X550492D02*
X547023D01*
X547095Y319254D01*
X547498Y318281D01*
X548139Y317445D01*
X548975Y316804D01*
X549948Y316401D01*
X550492Y316329D01*
Y319798D01*
D02*
G37*
G36*
X440000Y323833D02*
X439008Y323702D01*
X438084Y323319D01*
X437290Y322710D01*
X436681Y321916D01*
X436298Y320992D01*
X436167Y320000D01*
X436298Y319008D01*
X436681Y318084D01*
X437290Y317290D01*
X438084Y316681D01*
X439008Y316298D01*
X440000Y316167D01*
X440992Y316298D01*
X441916Y316681D01*
X442710Y317290D01*
X443319Y318084D01*
X443702Y319008D01*
X443833Y320000D01*
X443702Y320992D01*
X443319Y321916D01*
X442710Y322710D01*
X441916Y323319D01*
X440992Y323702D01*
X440000Y323833D01*
D02*
G37*
G36*
X529500Y319500D02*
X526031D01*
X526103Y318956D01*
X526506Y317983D01*
X527147Y317147D01*
X527983Y316506D01*
X528956Y316103D01*
X529500Y316031D01*
Y319500D01*
D02*
G37*
G36*
X533969D02*
X530500D01*
Y316031D01*
X531044Y316103D01*
X532017Y316506D01*
X532853Y317147D01*
X533494Y317983D01*
X533897Y318956D01*
X533969Y319500D01*
D02*
G37*
G36*
X419528Y292149D02*
X418650D01*
Y289457D01*
X422654D01*
X422611Y289783D01*
X422293Y290553D01*
X421785Y291214D01*
X421124Y291722D01*
X420354Y292041D01*
X419528Y292149D01*
D02*
G37*
G36*
X417650D02*
X416772D01*
X415945Y292041D01*
X415175Y291722D01*
X414514Y291214D01*
X414007Y290553D01*
X413688Y289783D01*
X413645Y289457D01*
X417650D01*
Y292149D01*
D02*
G37*
G36*
X405866D02*
X404988D01*
Y289457D01*
X408993D01*
X408950Y289783D01*
X408631Y290553D01*
X408124Y291214D01*
X407463Y291722D01*
X406693Y292041D01*
X405866Y292149D01*
D02*
G37*
G36*
X403988D02*
X403110D01*
X402284Y292041D01*
X401514Y291722D01*
X400853Y291214D01*
X400345Y290553D01*
X400026Y289783D01*
X399983Y289457D01*
X403988D01*
Y292149D01*
D02*
G37*
G36*
X422654Y288457D02*
X418650D01*
Y285764D01*
X419528D01*
X420354Y285873D01*
X421124Y286192D01*
X421785Y286699D01*
X422293Y287360D01*
X422611Y288130D01*
X422654Y288457D01*
D02*
G37*
G36*
X417650D02*
X413645D01*
X413688Y288130D01*
X414007Y287360D01*
X414514Y286699D01*
X415175Y286192D01*
X415945Y285873D01*
X416772Y285764D01*
X417650D01*
Y288457D01*
D02*
G37*
G36*
X408993D02*
X404988D01*
Y285764D01*
X405866D01*
X406693Y285873D01*
X407463Y286192D01*
X408124Y286699D01*
X408631Y287360D01*
X408950Y288130D01*
X408993Y288457D01*
D02*
G37*
G36*
X403988D02*
X399983D01*
X400026Y288130D01*
X400345Y287360D01*
X400853Y286699D01*
X401514Y286192D01*
X402284Y285873D01*
X403110Y285764D01*
X403988D01*
Y288457D01*
D02*
G37*
G36*
X405866Y264000D02*
X404988D01*
Y261307D01*
X408993D01*
X408950Y261633D01*
X408631Y262403D01*
X408124Y263065D01*
X407463Y263572D01*
X406693Y263891D01*
X405866Y264000D01*
D02*
G37*
G36*
X419528D02*
X418650D01*
Y261307D01*
X422654D01*
X422611Y261633D01*
X422293Y262403D01*
X421785Y263065D01*
X421124Y263572D01*
X420354Y263891D01*
X419528Y264000D01*
D02*
G37*
G36*
X417650D02*
X416772D01*
X415945Y263891D01*
X415175Y263572D01*
X414514Y263065D01*
X414007Y262403D01*
X413688Y261633D01*
X413645Y261307D01*
X417650D01*
Y264000D01*
D02*
G37*
G36*
X403988D02*
X403110D01*
X402284Y263891D01*
X401514Y263572D01*
X400853Y263065D01*
X400345Y262403D01*
X400026Y261633D01*
X399983Y261307D01*
X403988D01*
Y264000D01*
D02*
G37*
G36*
X422654Y260307D02*
X418650D01*
Y257614D01*
X419528D01*
X420354Y257723D01*
X421124Y258042D01*
X421785Y258549D01*
X422293Y259211D01*
X422611Y259981D01*
X422654Y260307D01*
D02*
G37*
G36*
X417650D02*
X413645D01*
X413688Y259981D01*
X414007Y259211D01*
X414514Y258549D01*
X415175Y258042D01*
X415945Y257723D01*
X416772Y257614D01*
X417650D01*
Y260307D01*
D02*
G37*
G36*
X408993D02*
X404988D01*
Y257614D01*
X405866D01*
X406693Y257723D01*
X407463Y258042D01*
X408124Y258549D01*
X408631Y259211D01*
X408950Y259981D01*
X408993Y260307D01*
D02*
G37*
G36*
X403988D02*
X399983D01*
X400026Y259981D01*
X400345Y259211D01*
X400853Y258549D01*
X401514Y258042D01*
X402284Y257723D01*
X403110Y257614D01*
X403988D01*
Y260307D01*
D02*
G37*
G36*
X490500Y213969D02*
Y210500D01*
X493969D01*
X493897Y211044D01*
X493494Y212017D01*
X492853Y212853D01*
X492017Y213494D01*
X491044Y213897D01*
X490500Y213969D01*
D02*
G37*
G36*
X480500D02*
Y210500D01*
X483969D01*
X483897Y211044D01*
X483494Y212017D01*
X482853Y212853D01*
X482017Y213494D01*
X481044Y213897D01*
X480500Y213969D01*
D02*
G37*
G36*
X500500Y213969D02*
Y210500D01*
X503969D01*
X503897Y211044D01*
X503494Y212017D01*
X502853Y212853D01*
X502017Y213494D01*
X501044Y213897D01*
X500500Y213969D01*
D02*
G37*
G36*
X479500Y213969D02*
X478956Y213897D01*
X477983Y213494D01*
X477147Y212853D01*
X476506Y212017D01*
X476103Y211044D01*
X476031Y210500D01*
X479500D01*
Y213969D01*
D02*
G37*
G36*
X489500D02*
X488956Y213897D01*
X487983Y213494D01*
X487147Y212853D01*
X486506Y212017D01*
X486103Y211044D01*
X486031Y210500D01*
X489500D01*
Y213969D01*
D02*
G37*
G36*
X499500D02*
X498956Y213897D01*
X497983Y213494D01*
X497147Y212853D01*
X496506Y212017D01*
X496103Y211044D01*
X496031Y210500D01*
X499500D01*
Y213969D01*
D02*
G37*
G36*
X470500Y213969D02*
Y210500D01*
X473969D01*
X473897Y211044D01*
X473494Y212017D01*
X472853Y212853D01*
X472017Y213494D01*
X471044Y213897D01*
X470500Y213969D01*
D02*
G37*
G36*
X469500Y213969D02*
X468956Y213897D01*
X467983Y213494D01*
X467147Y212853D01*
X466506Y212017D01*
X466103Y211044D01*
X466031Y210500D01*
X469500D01*
Y213969D01*
D02*
G37*
G36*
X560000Y213833D02*
X559008Y213702D01*
X558084Y213319D01*
X557290Y212710D01*
X556681Y211916D01*
X556298Y210992D01*
X556167Y210000D01*
X556298Y209008D01*
X556681Y208084D01*
X557290Y207290D01*
X558084Y206681D01*
X559008Y206298D01*
X560000Y206167D01*
X560992Y206298D01*
X561916Y206681D01*
X562710Y207290D01*
X563319Y208084D01*
X563702Y209008D01*
X563833Y210000D01*
X563702Y210992D01*
X563319Y211916D01*
X562710Y212710D01*
X561916Y213319D01*
X560992Y213702D01*
X560000Y213833D01*
D02*
G37*
G36*
X440000D02*
X439008Y213702D01*
X438084Y213319D01*
X437290Y212710D01*
X436681Y211916D01*
X436298Y210992D01*
X436167Y210000D01*
X436298Y209008D01*
X436681Y208084D01*
X437290Y207290D01*
X438084Y206681D01*
X439008Y206298D01*
X440000Y206167D01*
X440992Y206298D01*
X441916Y206681D01*
X442710Y207290D01*
X443319Y208084D01*
X443702Y209008D01*
X443833Y210000D01*
X443702Y210992D01*
X443319Y211916D01*
X442710Y212710D01*
X441916Y213319D01*
X440992Y213702D01*
X440000Y213833D01*
D02*
G37*
G36*
X550000Y213833D02*
X549008Y213702D01*
X548084Y213319D01*
X547290Y212710D01*
X546681Y211916D01*
X546298Y210992D01*
X546167Y210000D01*
X546298Y209008D01*
X546681Y208084D01*
X547290Y207290D01*
X548084Y206681D01*
X549008Y206298D01*
X550000Y206167D01*
X550992Y206298D01*
X551916Y206681D01*
X552710Y207290D01*
X553319Y208084D01*
X553702Y209008D01*
X553833Y210000D01*
X553702Y210992D01*
X553319Y211916D01*
X552710Y212710D01*
X551916Y213319D01*
X550992Y213702D01*
X550000Y213833D01*
D02*
G37*
G36*
X540000D02*
X539008Y213702D01*
X538084Y213319D01*
X537290Y212710D01*
X536681Y211916D01*
X536298Y210992D01*
X536167Y210000D01*
X536298Y209008D01*
X536681Y208084D01*
X537290Y207290D01*
X538084Y206681D01*
X539008Y206298D01*
X540000Y206167D01*
X540992Y206298D01*
X541916Y206681D01*
X542710Y207290D01*
X543319Y208084D01*
X543702Y209008D01*
X543833Y210000D01*
X543702Y210992D01*
X543319Y211916D01*
X542710Y212710D01*
X541916Y213319D01*
X540992Y213702D01*
X540000Y213833D01*
D02*
G37*
G36*
X530000D02*
X529008Y213702D01*
X528084Y213319D01*
X527290Y212710D01*
X526681Y211916D01*
X526298Y210992D01*
X526167Y210000D01*
X526298Y209008D01*
X526681Y208084D01*
X527290Y207290D01*
X528084Y206681D01*
X529008Y206298D01*
X530000Y206167D01*
X530992Y206298D01*
X531916Y206681D01*
X532710Y207290D01*
X533319Y208084D01*
X533702Y209008D01*
X533833Y210000D01*
X533702Y210992D01*
X533319Y211916D01*
X532710Y212710D01*
X531916Y213319D01*
X530992Y213702D01*
X530000Y213833D01*
D02*
G37*
G36*
X430000D02*
X429008Y213702D01*
X428084Y213319D01*
X427290Y212710D01*
X426681Y211916D01*
X426298Y210992D01*
X426167Y210000D01*
X426298Y209008D01*
X426681Y208084D01*
X427290Y207290D01*
X428084Y206681D01*
X429008Y206298D01*
X430000Y206167D01*
X430992Y206298D01*
X431916Y206681D01*
X432710Y207290D01*
X433319Y208084D01*
X433702Y209008D01*
X433833Y210000D01*
X433702Y210992D01*
X433319Y211916D01*
X432710Y212710D01*
X431916Y213319D01*
X430992Y213702D01*
X430000Y213833D01*
D02*
G37*
G36*
X420000D02*
X419008Y213702D01*
X418084Y213319D01*
X417290Y212710D01*
X416681Y211916D01*
X416298Y210992D01*
X416167Y210000D01*
X416298Y209008D01*
X416681Y208084D01*
X417290Y207290D01*
X418084Y206681D01*
X419008Y206298D01*
X420000Y206167D01*
X420992Y206298D01*
X421916Y206681D01*
X422710Y207290D01*
X423319Y208084D01*
X423702Y209008D01*
X423833Y210000D01*
X423702Y210992D01*
X423319Y211916D01*
X422710Y212710D01*
X421916Y213319D01*
X420992Y213702D01*
X420000Y213833D01*
D02*
G37*
G36*
X410000D02*
X409008Y213702D01*
X408084Y213319D01*
X407290Y212710D01*
X406681Y211916D01*
X406298Y210992D01*
X406167Y210000D01*
X406298Y209008D01*
X406681Y208084D01*
X407290Y207290D01*
X408084Y206681D01*
X409008Y206298D01*
X410000Y206167D01*
X410992Y206298D01*
X411916Y206681D01*
X412710Y207290D01*
X413319Y208084D01*
X413702Y209008D01*
X413833Y210000D01*
X413702Y210992D01*
X413319Y211916D01*
X412710Y212710D01*
X411916Y213319D01*
X410992Y213702D01*
X410000Y213833D01*
D02*
G37*
G36*
X499500Y209500D02*
X496031D01*
X496103Y208956D01*
X496506Y207983D01*
X497147Y207147D01*
X497983Y206506D01*
X498956Y206103D01*
X499500Y206031D01*
Y209500D01*
D02*
G37*
G36*
X503969D02*
X500500D01*
Y206031D01*
X501044Y206103D01*
X502017Y206506D01*
X502853Y207147D01*
X503494Y207983D01*
X503897Y208956D01*
X503969Y209500D01*
D02*
G37*
G36*
X473969Y209500D02*
X470500D01*
Y206031D01*
X471044Y206103D01*
X472017Y206506D01*
X472853Y207147D01*
X473494Y207983D01*
X473897Y208956D01*
X473969Y209500D01*
D02*
G37*
G36*
X493969Y209500D02*
X490500D01*
Y206031D01*
X491044Y206103D01*
X492017Y206506D01*
X492853Y207147D01*
X493494Y207983D01*
X493897Y208956D01*
X493969Y209500D01*
D02*
G37*
G36*
X483969D02*
X480500D01*
Y206031D01*
X481044Y206103D01*
X482017Y206506D01*
X482853Y207147D01*
X483494Y207983D01*
X483897Y208956D01*
X483969Y209500D01*
D02*
G37*
G36*
X479500D02*
X476031D01*
X476103Y208956D01*
X476506Y207983D01*
X477147Y207147D01*
X477983Y206506D01*
X478956Y206103D01*
X479500Y206031D01*
Y209500D01*
D02*
G37*
G36*
X489500D02*
X486031D01*
X486103Y208956D01*
X486506Y207983D01*
X487147Y207147D01*
X487983Y206506D01*
X488956Y206103D01*
X489500Y206031D01*
Y209500D01*
D02*
G37*
G36*
X469500Y209500D02*
X466031D01*
X466103Y208956D01*
X466506Y207983D01*
X467147Y207147D01*
X467983Y206506D01*
X468956Y206103D01*
X469500Y206031D01*
Y209500D01*
D02*
G37*
G36*
X500500Y203969D02*
Y200500D01*
X503969D01*
X503897Y201044D01*
X503494Y202017D01*
X502853Y202853D01*
X502017Y203494D01*
X501044Y203897D01*
X500500Y203969D01*
D02*
G37*
G36*
X490500D02*
Y200500D01*
X493969D01*
X493897Y201044D01*
X493494Y202017D01*
X492853Y202853D01*
X492017Y203494D01*
X491044Y203897D01*
X490500Y203969D01*
D02*
G37*
G36*
X470500D02*
Y200500D01*
X473969D01*
X473897Y201044D01*
X473494Y202017D01*
X472853Y202853D01*
X472017Y203494D01*
X471044Y203897D01*
X470500Y203969D01*
D02*
G37*
G36*
X480500Y203969D02*
Y200500D01*
X483969D01*
X483897Y201044D01*
X483494Y202017D01*
X482853Y202853D01*
X482017Y203494D01*
X481044Y203897D01*
X480500Y203969D01*
D02*
G37*
G36*
X499500Y203969D02*
X498956Y203897D01*
X497983Y203494D01*
X497147Y202853D01*
X496506Y202017D01*
X496103Y201044D01*
X496031Y200500D01*
X499500D01*
Y203969D01*
D02*
G37*
G36*
X489500D02*
X488956Y203897D01*
X487983Y203494D01*
X487147Y202853D01*
X486506Y202017D01*
X486103Y201044D01*
X486031Y200500D01*
X489500D01*
Y203969D01*
D02*
G37*
G36*
X469500D02*
X468956Y203897D01*
X467983Y203494D01*
X467147Y202853D01*
X466506Y202017D01*
X466103Y201044D01*
X466031Y200500D01*
X469500D01*
Y203969D01*
D02*
G37*
G36*
X479500D02*
X478956Y203897D01*
X477983Y203494D01*
X477147Y202853D01*
X476506Y202017D01*
X476103Y201044D01*
X476031Y200500D01*
X479500D01*
Y203969D01*
D02*
G37*
G36*
X540000Y203833D02*
X539008Y203702D01*
X538084Y203319D01*
X537290Y202710D01*
X536681Y201916D01*
X536298Y200992D01*
X536167Y200000D01*
X536298Y199008D01*
X536681Y198084D01*
X537290Y197290D01*
X538084Y196681D01*
X539008Y196298D01*
X540000Y196167D01*
X540992Y196298D01*
X541916Y196681D01*
X542710Y197290D01*
X543319Y198084D01*
X543702Y199008D01*
X543833Y200000D01*
X543702Y200992D01*
X543319Y201916D01*
X542710Y202710D01*
X541916Y203319D01*
X540992Y203702D01*
X540000Y203833D01*
D02*
G37*
G36*
X420000D02*
X419008Y203702D01*
X418084Y203319D01*
X417290Y202710D01*
X416681Y201916D01*
X416298Y200992D01*
X416167Y200000D01*
X416298Y199008D01*
X416681Y198084D01*
X417290Y197290D01*
X418084Y196681D01*
X419008Y196298D01*
X420000Y196167D01*
X420992Y196298D01*
X421916Y196681D01*
X422710Y197290D01*
X423319Y198084D01*
X423702Y199008D01*
X423833Y200000D01*
X423702Y200992D01*
X423319Y201916D01*
X422710Y202710D01*
X421916Y203319D01*
X420992Y203702D01*
X420000Y203833D01*
D02*
G37*
G36*
X560000Y203833D02*
X559008Y203702D01*
X558084Y203319D01*
X557290Y202710D01*
X556681Y201916D01*
X556298Y200992D01*
X556167Y200000D01*
X556298Y199008D01*
X556681Y198084D01*
X557290Y197290D01*
X558084Y196681D01*
X559008Y196298D01*
X560000Y196167D01*
X560992Y196298D01*
X561916Y196681D01*
X562710Y197290D01*
X563319Y198084D01*
X563702Y199008D01*
X563833Y200000D01*
X563702Y200992D01*
X563319Y201916D01*
X562710Y202710D01*
X561916Y203319D01*
X560992Y203702D01*
X560000Y203833D01*
D02*
G37*
G36*
X550000D02*
X549008Y203702D01*
X548084Y203319D01*
X547290Y202710D01*
X546681Y201916D01*
X546298Y200992D01*
X546167Y200000D01*
X546298Y199008D01*
X546681Y198084D01*
X547290Y197290D01*
X548084Y196681D01*
X549008Y196298D01*
X550000Y196167D01*
X550992Y196298D01*
X551916Y196681D01*
X552710Y197290D01*
X553319Y198084D01*
X553702Y199008D01*
X553833Y200000D01*
X553702Y200992D01*
X553319Y201916D01*
X552710Y202710D01*
X551916Y203319D01*
X550992Y203702D01*
X550000Y203833D01*
D02*
G37*
G36*
X530000D02*
X529008Y203702D01*
X528084Y203319D01*
X527290Y202710D01*
X526681Y201916D01*
X526298Y200992D01*
X526167Y200000D01*
X526298Y199008D01*
X526681Y198084D01*
X527290Y197290D01*
X528084Y196681D01*
X529008Y196298D01*
X530000Y196167D01*
X530992Y196298D01*
X531916Y196681D01*
X532710Y197290D01*
X533319Y198084D01*
X533702Y199008D01*
X533833Y200000D01*
X533702Y200992D01*
X533319Y201916D01*
X532710Y202710D01*
X531916Y203319D01*
X530992Y203702D01*
X530000Y203833D01*
D02*
G37*
G36*
X440000D02*
X439008Y203702D01*
X438084Y203319D01*
X437290Y202710D01*
X436681Y201916D01*
X436298Y200992D01*
X436167Y200000D01*
X436298Y199008D01*
X436681Y198084D01*
X437290Y197290D01*
X438084Y196681D01*
X439008Y196298D01*
X440000Y196167D01*
X440992Y196298D01*
X441916Y196681D01*
X442710Y197290D01*
X443319Y198084D01*
X443702Y199008D01*
X443833Y200000D01*
X443702Y200992D01*
X443319Y201916D01*
X442710Y202710D01*
X441916Y203319D01*
X440992Y203702D01*
X440000Y203833D01*
D02*
G37*
G36*
X430000D02*
X429008Y203702D01*
X428084Y203319D01*
X427290Y202710D01*
X426681Y201916D01*
X426298Y200992D01*
X426167Y200000D01*
X426298Y199008D01*
X426681Y198084D01*
X427290Y197290D01*
X428084Y196681D01*
X429008Y196298D01*
X430000Y196167D01*
X430992Y196298D01*
X431916Y196681D01*
X432710Y197290D01*
X433319Y198084D01*
X433702Y199008D01*
X433833Y200000D01*
X433702Y200992D01*
X433319Y201916D01*
X432710Y202710D01*
X431916Y203319D01*
X430992Y203702D01*
X430000Y203833D01*
D02*
G37*
G36*
X410000D02*
X409008Y203702D01*
X408084Y203319D01*
X407290Y202710D01*
X406681Y201916D01*
X406298Y200992D01*
X406167Y200000D01*
X406298Y199008D01*
X406681Y198084D01*
X407290Y197290D01*
X408084Y196681D01*
X409008Y196298D01*
X410000Y196167D01*
X410992Y196298D01*
X411916Y196681D01*
X412710Y197290D01*
X413319Y198084D01*
X413702Y199008D01*
X413833Y200000D01*
X413702Y200992D01*
X413319Y201916D01*
X412710Y202710D01*
X411916Y203319D01*
X410992Y203702D01*
X410000Y203833D01*
D02*
G37*
G36*
X479500Y199500D02*
X476031D01*
X476103Y198956D01*
X476506Y197983D01*
X477147Y197147D01*
X477983Y196506D01*
X478956Y196103D01*
X479500Y196031D01*
Y199500D01*
D02*
G37*
G36*
X483969D02*
X480500D01*
Y196031D01*
X481044Y196103D01*
X482017Y196506D01*
X482853Y197147D01*
X483494Y197983D01*
X483897Y198956D01*
X483969Y199500D01*
D02*
G37*
G36*
X493969D02*
X490500D01*
Y196031D01*
X491044Y196103D01*
X492017Y196506D01*
X492853Y197147D01*
X493494Y197983D01*
X493897Y198956D01*
X493969Y199500D01*
D02*
G37*
G36*
X473969D02*
X470500D01*
Y196031D01*
X471044Y196103D01*
X472017Y196506D01*
X472853Y197147D01*
X473494Y197983D01*
X473897Y198956D01*
X473969Y199500D01*
D02*
G37*
G36*
X503969D02*
X500500D01*
Y196031D01*
X501044Y196103D01*
X502017Y196506D01*
X502853Y197147D01*
X503494Y197983D01*
X503897Y198956D01*
X503969Y199500D01*
D02*
G37*
G36*
X499500D02*
X496031D01*
X496103Y198956D01*
X496506Y197983D01*
X497147Y197147D01*
X497983Y196506D01*
X498956Y196103D01*
X499500Y196031D01*
Y199500D01*
D02*
G37*
G36*
X489500D02*
X486031D01*
X486103Y198956D01*
X486506Y197983D01*
X487147Y197147D01*
X487983Y196506D01*
X488956Y196103D01*
X489500Y196031D01*
Y199500D01*
D02*
G37*
G36*
X469500D02*
X466031D01*
X466103Y198956D01*
X466506Y197983D01*
X467147Y197147D01*
X467983Y196506D01*
X468956Y196103D01*
X469500Y196031D01*
Y199500D01*
D02*
G37*
%LPD*%
D18*
X530000Y390000D02*
D03*
Y370000D02*
D03*
Y360000D02*
D03*
Y380000D02*
D03*
Y330000D02*
D03*
Y340000D02*
D03*
Y350000D02*
D03*
Y320000D02*
D03*
X440000D02*
D03*
Y330000D02*
D03*
Y350000D02*
D03*
Y340000D02*
D03*
Y370000D02*
D03*
Y360000D02*
D03*
Y390000D02*
D03*
Y380000D02*
D03*
X550992Y320298D02*
D03*
Y330298D02*
D03*
Y350298D02*
D03*
Y340298D02*
D03*
Y370298D02*
D03*
X550992Y360298D02*
D03*
X550992Y390298D02*
D03*
Y380298D02*
D03*
X570992Y320298D02*
D03*
Y330298D02*
D03*
X570992Y350298D02*
D03*
X570992Y340298D02*
D03*
Y370298D02*
D03*
Y360298D02*
D03*
Y390298D02*
D03*
Y380298D02*
D03*
X420992Y390298D02*
D03*
Y380298D02*
D03*
Y360298D02*
D03*
Y370298D02*
D03*
Y340298D02*
D03*
Y350298D02*
D03*
X420992Y320298D02*
D03*
X420992Y330298D02*
D03*
X400992Y390298D02*
D03*
Y380298D02*
D03*
Y360298D02*
D03*
Y370298D02*
D03*
Y340298D02*
D03*
Y350298D02*
D03*
Y320298D02*
D03*
X400992Y330298D02*
D03*
X500000Y200000D02*
D03*
Y210000D02*
D03*
X490000Y210000D02*
D03*
Y200000D02*
D03*
X480000Y210000D02*
D03*
Y200000D02*
D03*
X470000Y210000D02*
D03*
X470000Y200000D02*
D03*
X560000D02*
D03*
Y210000D02*
D03*
X550000Y210000D02*
D03*
Y200000D02*
D03*
X540000Y210000D02*
D03*
Y200000D02*
D03*
X530000Y210000D02*
D03*
X530000Y200000D02*
D03*
X440000D02*
D03*
Y210000D02*
D03*
X430000Y210000D02*
D03*
Y200000D02*
D03*
X420000Y210000D02*
D03*
Y200000D02*
D03*
X410000Y210000D02*
D03*
X410000Y200000D02*
D03*
D19*
X404488Y260807D02*
D03*
Y288957D02*
D03*
X418150Y260807D02*
D03*
Y288957D02*
D03*
M02*
